<svg width="550" height="550" viewBox="0 0 550 550" fill="none" xmlns="http://www.w3.org/2000/svg">
<g clip-path="url(#clip0_1021_2730)">
<path d="M343.75 197.656H326.562V240.625H343.75V197.656Z" fill="white"/>
<path d="M378.125 197.656H360.938V240.625H378.125V197.656Z" fill="white"/>
<path d="M343.75 257.812H326.562V275H343.75V257.812Z" fill="white"/>
<path d="M378.125 257.812H360.938V275H378.125V257.812Z" fill="white"/>
<path d="M283.594 292.188H266.406V309.375H283.594V292.188Z" fill="white"/>
<path d="M240.625 464.062H223.438V481.25H240.625V464.062Z" fill="white"/>
<path d="M378.125 292.188H360.938V309.375H378.125V292.188Z" fill="white"/>
<path d="M343.75 326.562H326.562V343.75H343.75V326.562Z" fill="white"/>
<path d="M378.125 326.562H360.938V343.75H378.125V326.562Z" fill="white"/>
<path d="M17.1875 17.1875H42.9688V0H8.59375C3.85 0 0 3.85 0 8.59375V42.9688H17.1875V17.1875Z" fill="white"/>
<path d="M541.406 0H507.031V17.1875H532.812V42.9688H550V8.59375C550 3.85 546.15 0 541.406 0Z" fill="white"/>
<path d="M17.1875 507.031H0V541.406C0 546.15 3.85 550 8.59375 550H42.9688V532.812H17.1875V507.031Z" fill="white"/>
<path d="M532.812 532.812H507.031V550H541.406C546.15 550 550 546.15 550 541.406V507.031H532.812V532.812Z" fill="white"/>
<path d="M34.375 42.9688V146.094C34.375 150.837 38.225 154.688 42.9688 154.688H146.094C150.837 154.688 154.688 150.837 154.688 146.094V42.9688C154.688 38.225 150.837 34.375 146.094 34.375H42.9688C38.225 34.375 34.375 38.225 34.375 42.9688ZM51.5625 51.5625H137.5V137.5H51.5625V51.5625Z" fill="white"/>
<path d="M111.719 68.75H77.3438C72.6 68.75 68.75 72.6 68.75 77.3438V111.719C68.75 116.462 72.6 120.312 77.3438 120.312H111.719C116.462 120.312 120.312 116.462 120.312 111.719V77.3438C120.312 72.6 116.462 68.75 111.719 68.75ZM103.125 103.125H85.9375V85.9375H103.125V103.125Z" fill="white"/>
<path d="M403.906 154.688H507.031C511.775 154.688 515.625 150.837 515.625 146.094V42.9688C515.625 38.225 511.775 34.375 507.031 34.375H403.906C399.163 34.375 395.312 38.225 395.312 42.9688V146.094C395.312 150.837 399.163 154.688 403.906 154.688ZM412.5 51.5625H498.438V137.5H412.5V51.5625Z" fill="white"/>
<path d="M472.656 68.75H438.281C433.538 68.75 429.688 72.6 429.688 77.3438V111.719C429.688 116.462 433.538 120.312 438.281 120.312H472.656C477.4 120.312 481.25 116.462 481.25 111.719V77.3438C481.25 72.6 477.4 68.75 472.656 68.75ZM464.062 103.125H446.875V85.9375H464.062V103.125Z" fill="white"/>
<path d="M146.094 395.312H42.9688C38.225 395.312 34.375 399.163 34.375 403.906V507.031C34.375 511.775 38.225 515.625 42.9688 515.625H146.094C150.837 515.625 154.688 511.775 154.688 507.031V403.906C154.688 399.163 150.837 395.312 146.094 395.312ZM137.5 498.438H51.5625V412.5H137.5V498.438Z" fill="white"/>
<path d="M77.3438 481.25H111.719C116.462 481.25 120.312 477.4 120.312 472.656V438.281C120.312 433.538 116.462 429.688 111.719 429.688H77.3438C72.6 429.688 68.75 433.538 68.75 438.281V472.656C68.75 477.4 72.6 481.25 77.3438 481.25ZM85.9375 446.875H103.125V464.062H85.9375V446.875Z" fill="white"/>
<path d="M378.125 163.281H317.969V60.1562H300.781V171.875C300.781 176.619 304.631 180.469 309.375 180.469H378.125V163.281Z" fill="white"/>
<path d="M249.219 103.125H189.062V120.312H249.219V103.125Z" fill="white"/>
<path d="M283.594 68.75H223.438V85.9375H283.594V68.75Z" fill="white"/>
<path d="M51.5625 163.281H34.375V240.625H51.5625V163.281Z" fill="white"/>
<path d="M154.688 214.844H68.75V232.031H146.094V266.406H163.281V223.438C163.281 218.694 159.431 214.844 154.688 214.844Z" fill="white"/>
<path d="M94.5312 171.875H77.3438V189.062H94.5312V171.875Z" fill="white"/>
<path d="M197.656 154.688H180.469V223.438H197.656V154.688Z" fill="white"/>
<path d="M257.812 240.625H180.469V257.812H257.812V240.625Z" fill="white"/>
<path d="M524.219 249.219H507.031V335.156H481.25V352.344H515.625C520.369 352.344 524.219 348.494 524.219 343.75V249.219Z" fill="white"/>
<path d="M240.625 154.688H223.438V171.875H240.625V154.688Z" fill="white"/>
<path d="M51.5625 283.594H34.375V352.344H51.5625V283.594Z" fill="white"/>
<path d="M111.719 360.938H34.375V378.125H111.719V360.938Z" fill="white"/>
<path d="M429.688 240.625H446.875V206.25C446.875 201.506 443.025 197.656 438.281 197.656H395.312V214.844H429.688V240.625Z" fill="white"/>
<path d="M94.5312 283.594H77.3438V300.781H94.5312V283.594Z" fill="white"/>
<path d="M189.062 275H171.875V343.75H189.062V275Z" fill="white"/>
<path d="M249.219 360.938H171.875V378.125H249.219V360.938Z" fill="white"/>
<path d="M146.094 326.562H68.75V343.75H146.094V326.562Z" fill="white"/>
<path d="M197.656 446.875H180.469V481.25H197.656V446.875Z" fill="white"/>
<path d="M249.219 412.5H171.875V429.688H249.219V412.5Z" fill="white"/>
<path d="M309.375 378.125V335.156C309.375 330.413 305.525 326.562 300.781 326.562H214.844V343.75H292.188V378.125H309.375Z" fill="white"/>
<path d="M240.625 275H223.438V292.188H240.625V275Z" fill="white"/>
<path d="M146.094 292.188H128.906V309.375H146.094V292.188Z" fill="white"/>
<path d="M524.219 455.469H507.031V515.625H524.219V455.469Z" fill="white"/>
<path d="M489.844 498.438H464.062V515.625H489.844V498.438Z" fill="white"/>
<path d="M481.25 446.875H464.062V481.25H481.25V446.875Z" fill="white"/>
<path d="M524.219 378.125C524.219 373.381 520.369 369.531 515.625 369.531H421.094V386.719H507.031V438.281H524.219V378.125Z" fill="white"/>
<path d="M412.5 481.25V438.281C412.5 433.538 408.65 429.688 403.906 429.688H309.375V446.875H395.312V481.25H412.5Z" fill="white"/>
<path d="M489.844 403.906H429.688V421.094H489.844V403.906Z" fill="white"/>
<path d="M232.031 498.438H171.875V515.625H232.031V498.438Z" fill="white"/>
<path d="M275 438.281H257.812V515.625H275V438.281Z" fill="white"/>
<path d="M309.375 395.312H275V412.5H309.375V395.312Z" fill="white"/>
<path d="M403.906 309.375H446.875V292.188H412.5V240.625H395.312V300.781C395.312 305.525 399.163 309.375 403.906 309.375Z" fill="white"/>
<path d="M472.656 257.812H429.688V275H472.656V257.812Z" fill="white"/>
<path d="M489.844 171.875H464.062V189.062H489.844V171.875Z" fill="white"/>
<path d="M524.219 171.875H507.031V214.844H524.219V171.875Z" fill="white"/>
<path d="M481.25 214.844H464.062V232.031H481.25V214.844Z" fill="white"/>
<path d="M335.156 146.094H369.531C374.275 146.094 378.125 142.244 378.125 137.5V25.7812H360.938V128.906H335.156V146.094Z" fill="white"/>
<path d="M206.25 42.9688H335.156V25.7812H197.656C192.913 25.7812 189.062 29.6313 189.062 34.375V77.3438H206.25V42.9688Z" fill="white"/>
<path d="M214.844 206.25H275C279.744 206.25 283.594 202.4 283.594 197.656V128.906H266.406V189.062H214.844V206.25Z" fill="white"/>
<path d="M309.375 197.656H292.188V232.031H309.375V197.656Z" fill="white"/>
<path d="M369.531 464.062H309.375V481.25H369.531V464.062Z" fill="white"/>
<path d="M386.719 498.438H309.375V515.625H386.719V498.438Z" fill="white"/>
<path d="M429.688 498.438H412.5V515.625H438.281C443.025 515.625 446.875 511.775 446.875 507.031V438.281H429.688V498.438Z" fill="white"/>
<path d="M154.688 360.938H137.5V378.125H154.688V360.938Z" fill="white"/>
<path d="M369.531 360.938H335.156V378.125H369.531V360.938Z" fill="white"/>
<path d="M412.5 326.562H395.312V352.344H412.5V326.562Z" fill="white"/>
<path d="M403.906 369.531H386.719V386.719H403.906V369.531Z" fill="white"/>
<path d="M360.938 395.312H335.156V412.5H360.938V395.312Z" fill="white"/>
<path d="M446.875 326.562H429.688V343.75H446.875V326.562Z" fill="white"/>
<path d="M489.844 292.188H464.062V309.375H489.844V292.188Z" fill="white"/>
<path d="M343.75 292.188H300.781V309.375H343.75V292.188Z" fill="white"/>
<path d="M309.375 249.219H292.188V275H309.375V249.219Z" fill="white"/>
</g>
<defs>
<clipPath id="clip0_1021_2730">
<rect width="550" height="550" fill="white"/>
</clipPath>
</defs>
</svg>
