<svg width="550" height="483" viewBox="0 0 550 483" fill="none" xmlns="http://www.w3.org/2000/svg">
<path d="M183.01 473.741C183.01 477.036 184.84 480.059 187.75 481.599C190.658 483.137 194.193 482.94 196.911 481.078L258.122 439.283L183.011 403.483V473.741H183.01Z" fill="white"/>
<path d="M547.141 2.3611C545.46 0.811106 543.29 0 541.097 0C539.775 0 538.456 0.293332 537.208 0.906661L8.78246 260.114C3.38138 262.768 -0.0363743 268.284 0.000292113 274.317C0.0369586 280.343 3.51249 285.821 8.95246 288.416L148.221 354.776L426.685 125.899L182.726 371.216L356.219 453.882C358.35 454.903 360.677 455.411 362.979 455.411C364.944 455.411 366.889 455.053 368.741 454.325C372.782 452.727 375.994 449.527 377.597 445.485L549.369 12.1544C550.729 8.74439 549.843 4.84553 547.141 2.3611Z" fill="white"/>
</svg>
