<svg width="1027" height="1000" viewBox="0 0 1027 1000" fill="none" xmlns="http://www.w3.org/2000/svg">
<path fill-rule="evenodd" clip-rule="evenodd" d="M513.5 1000C797.098 1000 1027 776.143 1027 500C1027 223.857 797.098 0 513.5 0C229.902 0 0 223.857 0 500C0 776.143 229.902 1000 513.5 1000ZM513.15 950C768.389 950 975.301 748.528 975.301 500C975.301 251.472 768.389 50 513.15 50C257.912 50 51 251.472 51 500C51 748.528 257.912 950 513.15 950Z" fill="#01AE92"/>
<g clip-path="url(#clip0_1021_2811)">
<path d="M581.75 422.656H564.562V465.625H581.75V422.656Z" fill="#01AE92"/>
<path d="M616.125 422.656H598.938V465.625H616.125V422.656Z" fill="#01AE92"/>
<path d="M581.75 482.812H564.562V500H581.75V482.812Z" fill="#01AE92"/>
<path d="M616.125 482.812H598.938V500H616.125V482.812Z" fill="#01AE92"/>
<path d="M521.594 517.188H504.406V534.375H521.594V517.188Z" fill="#01AE92"/>
<path d="M478.625 689.062H461.438V706.25H478.625V689.062Z" fill="#01AE92"/>
<path d="M616.125 517.188H598.938V534.375H616.125V517.188Z" fill="#01AE92"/>
<path d="M581.75 551.562H564.562V568.75H581.75V551.562Z" fill="#01AE92"/>
<path d="M616.125 551.562H598.938V568.75H616.125V551.562Z" fill="#01AE92"/>
<path d="M255.188 242.188H280.969V225H246.594C241.85 225 238 228.85 238 233.594V267.969H255.188V242.188Z" fill="#01AE92"/>
<path d="M779.406 225H745.031V242.188H770.812V267.969H788V233.594C788 228.85 784.15 225 779.406 225Z" fill="#01AE92"/>
<path d="M255.188 732.031H238V766.406C238 771.15 241.85 775 246.594 775H280.969V757.812H255.188V732.031Z" fill="#01AE92"/>
<path d="M770.812 757.812H745.031V775H779.406C784.15 775 788 771.15 788 766.406V732.031H770.812V757.812Z" fill="#01AE92"/>
<path d="M272.375 267.969V371.094C272.375 375.837 276.225 379.688 280.969 379.688H384.094C388.837 379.688 392.688 375.837 392.688 371.094V267.969C392.688 263.225 388.837 259.375 384.094 259.375H280.969C276.225 259.375 272.375 263.225 272.375 267.969ZM289.562 276.562H375.5V362.5H289.562V276.562Z" fill="#01AE92"/>
<path d="M349.719 293.75H315.344C310.6 293.75 306.75 297.6 306.75 302.344V336.719C306.75 341.462 310.6 345.312 315.344 345.312H349.719C354.462 345.312 358.312 341.462 358.312 336.719V302.344C358.312 297.6 354.462 293.75 349.719 293.75ZM341.125 328.125H323.938V310.938H341.125V328.125Z" fill="#01AE92"/>
<path d="M641.906 379.688H745.031C749.775 379.688 753.625 375.837 753.625 371.094V267.969C753.625 263.225 749.775 259.375 745.031 259.375H641.906C637.163 259.375 633.312 263.225 633.312 267.969V371.094C633.312 375.837 637.163 379.688 641.906 379.688ZM650.5 276.562H736.438V362.5H650.5V276.562Z" fill="#01AE92"/>
<path d="M710.656 293.75H676.281C671.538 293.75 667.688 297.6 667.688 302.344V336.719C667.688 341.462 671.538 345.312 676.281 345.312H710.656C715.4 345.312 719.25 341.462 719.25 336.719V302.344C719.25 297.6 715.4 293.75 710.656 293.75ZM702.062 328.125H684.875V310.938H702.062V328.125Z" fill="#01AE92"/>
<path d="M384.094 620.312H280.969C276.225 620.312 272.375 624.163 272.375 628.906V732.031C272.375 736.775 276.225 740.625 280.969 740.625H384.094C388.837 740.625 392.688 736.775 392.688 732.031V628.906C392.688 624.163 388.837 620.312 384.094 620.312ZM375.5 723.438H289.562V637.5H375.5V723.438Z" fill="#01AE92"/>
<path d="M315.344 706.25H349.719C354.462 706.25 358.312 702.4 358.312 697.656V663.281C358.312 658.538 354.462 654.688 349.719 654.688H315.344C310.6 654.688 306.75 658.538 306.75 663.281V697.656C306.75 702.4 310.6 706.25 315.344 706.25ZM323.938 671.875H341.125V689.062H323.938V671.875Z" fill="#01AE92"/>
<path d="M616.125 388.281H555.969V285.156H538.781V396.875C538.781 401.619 542.631 405.469 547.375 405.469H616.125V388.281Z" fill="#01AE92"/>
<path d="M487.219 328.125H427.062V345.312H487.219V328.125Z" fill="#01AE92"/>
<path d="M521.594 293.75H461.438V310.938H521.594V293.75Z" fill="#01AE92"/>
<path d="M289.562 388.281H272.375V465.625H289.562V388.281Z" fill="#01AE92"/>
<path d="M392.688 439.844H306.75V457.031H384.094V491.406H401.281V448.438C401.281 443.694 397.431 439.844 392.688 439.844Z" fill="#01AE92"/>
<path d="M332.531 396.875H315.344V414.062H332.531V396.875Z" fill="#01AE92"/>
<path d="M435.656 379.688H418.469V448.438H435.656V379.688Z" fill="#01AE92"/>
<path d="M495.812 465.625H418.469V482.812H495.812V465.625Z" fill="#01AE92"/>
<path d="M762.219 474.219H745.031V560.156H719.25V577.344H753.625C758.369 577.344 762.219 573.494 762.219 568.75V474.219Z" fill="#01AE92"/>
<path d="M478.625 379.688H461.438V396.875H478.625V379.688Z" fill="#01AE92"/>
<path d="M289.562 508.594H272.375V577.344H289.562V508.594Z" fill="#01AE92"/>
<path d="M349.719 585.938H272.375V603.125H349.719V585.938Z" fill="#01AE92"/>
<path d="M667.688 465.625H684.875V431.25C684.875 426.506 681.025 422.656 676.281 422.656H633.312V439.844H667.688V465.625Z" fill="#01AE92"/>
<path d="M332.531 508.594H315.344V525.781H332.531V508.594Z" fill="#01AE92"/>
<path d="M427.062 500H409.875V568.75H427.062V500Z" fill="#01AE92"/>
<path d="M487.219 585.938H409.875V603.125H487.219V585.938Z" fill="#01AE92"/>
<path d="M384.094 551.562H306.75V568.75H384.094V551.562Z" fill="#01AE92"/>
<path d="M435.656 671.875H418.469V706.25H435.656V671.875Z" fill="#01AE92"/>
<path d="M487.219 637.5H409.875V654.688H487.219V637.5Z" fill="#01AE92"/>
<path d="M547.375 603.125V560.156C547.375 555.413 543.525 551.562 538.781 551.562H452.844V568.75H530.188V603.125H547.375Z" fill="#01AE92"/>
<path d="M478.625 500H461.438V517.188H478.625V500Z" fill="#01AE92"/>
<path d="M384.094 517.188H366.906V534.375H384.094V517.188Z" fill="#01AE92"/>
<path d="M762.219 680.469H745.031V740.625H762.219V680.469Z" fill="#01AE92"/>
<path d="M727.844 723.438H702.062V740.625H727.844V723.438Z" fill="#01AE92"/>
<path d="M719.25 671.875H702.062V706.25H719.25V671.875Z" fill="#01AE92"/>
<path d="M762.219 603.125C762.219 598.381 758.369 594.531 753.625 594.531H659.094V611.719H745.031V663.281H762.219V603.125Z" fill="#01AE92"/>
<path d="M650.5 706.25V663.281C650.5 658.538 646.65 654.688 641.906 654.688H547.375V671.875H633.312V706.25H650.5Z" fill="#01AE92"/>
<path d="M727.844 628.906H667.688V646.094H727.844V628.906Z" fill="#01AE92"/>
<path d="M470.031 723.438H409.875V740.625H470.031V723.438Z" fill="#01AE92"/>
<path d="M513 663.281H495.812V740.625H513V663.281Z" fill="#01AE92"/>
<path d="M547.375 620.312H513V637.5H547.375V620.312Z" fill="#01AE92"/>
<path d="M641.906 534.375H684.875V517.188H650.5V465.625H633.312V525.781C633.312 530.525 637.163 534.375 641.906 534.375Z" fill="#01AE92"/>
<path d="M710.656 482.812H667.688V500H710.656V482.812Z" fill="#01AE92"/>
<path d="M727.844 396.875H702.062V414.062H727.844V396.875Z" fill="#01AE92"/>
<path d="M762.219 396.875H745.031V439.844H762.219V396.875Z" fill="#01AE92"/>
<path d="M719.25 439.844H702.062V457.031H719.25V439.844Z" fill="#01AE92"/>
<path d="M573.156 371.094H607.531C612.275 371.094 616.125 367.244 616.125 362.5V250.781H598.938V353.906H573.156V371.094Z" fill="#01AE92"/>
<path d="M444.25 267.969H573.156V250.781H435.656C430.913 250.781 427.062 254.631 427.062 259.375V302.344H444.25V267.969Z" fill="#01AE92"/>
<path d="M452.844 431.25H513C517.744 431.25 521.594 427.4 521.594 422.656V353.906H504.406V414.062H452.844V431.25Z" fill="#01AE92"/>
<path d="M547.375 422.656H530.188V457.031H547.375V422.656Z" fill="#01AE92"/>
<path d="M607.531 689.062H547.375V706.25H607.531V689.062Z" fill="#01AE92"/>
<path d="M624.719 723.438H547.375V740.625H624.719V723.438Z" fill="#01AE92"/>
<path d="M667.688 723.438H650.5V740.625H676.281C681.025 740.625 684.875 736.775 684.875 732.031V663.281H667.688V723.438Z" fill="#01AE92"/>
<path d="M392.688 585.938H375.5V603.125H392.688V585.938Z" fill="#01AE92"/>
<path d="M607.531 585.938H573.156V603.125H607.531V585.938Z" fill="#01AE92"/>
<path d="M650.5 551.562H633.312V577.344H650.5V551.562Z" fill="#01AE92"/>
<path d="M641.906 594.531H624.719V611.719H641.906V594.531Z" fill="#01AE92"/>
<path d="M598.938 620.312H573.156V637.5H598.938V620.312Z" fill="#01AE92"/>
<path d="M684.875 551.562H667.688V568.75H684.875V551.562Z" fill="#01AE92"/>
<path d="M727.844 517.188H702.062V534.375H727.844V517.188Z" fill="#01AE92"/>
<path d="M581.75 517.188H538.781V534.375H581.75V517.188Z" fill="#01AE92"/>
<path d="M547.375 474.219H530.188V500H547.375V474.219Z" fill="#01AE92"/>
</g>
<defs>
<clipPath id="clip0_1021_2811">
<rect width="550" height="550" fill="white" transform="translate(238 225)"/>
</clipPath>
</defs>
</svg>
