<svg width="1027" height="1000" viewBox="0 0 1027 1000" fill="none" xmlns="http://www.w3.org/2000/svg">
<path fill-rule="evenodd" clip-rule="evenodd" d="M513.5 1000C797.098 1000 1027 776.142 1027 500C1027 223.858 797.098 0 513.5 0C229.902 0 0 223.858 0 500C0 776.142 229.902 1000 513.5 1000ZM513.15 950C768.388 950 975.3 748.528 975.3 500C975.3 251.472 768.388 50 513.15 50C257.912 50 51 251.472 51 500C51 748.528 257.912 950 513.15 950Z" fill="#01AE92"/>
<path d="M421.01 732.427C421.01 735.723 422.84 738.745 425.75 740.285C428.658 741.824 432.193 741.626 434.911 739.765L496.122 697.97L421.011 662.17V732.427H421.01Z" fill="#01AE92"/>
<path d="M785.141 261.048C783.46 259.498 781.29 258.687 779.097 258.687C777.775 258.687 776.456 258.98 775.208 259.593L246.782 518.801C241.381 521.455 237.964 526.97 238 533.004C238.037 539.029 241.512 544.507 246.952 547.103L386.221 613.462L664.685 384.586L420.726 629.902L594.219 712.568C596.35 713.589 598.677 714.097 600.979 714.097C602.944 714.097 604.889 713.739 606.741 713.012C610.782 711.414 613.994 708.214 615.597 704.172L787.369 270.841C788.729 267.431 787.843 263.532 785.141 261.048Z" fill="#01AE92"/>
</svg>
