<?xml version="1.0" encoding="UTF-8"?>
<svg id="Layer_2" data-name="Layer 2" xmlns="http://www.w3.org/2000/svg" viewBox="0 0 2161.94 1686">
  <defs>
    <style>
      .cls-1 {
        opacity: .2;
      }

      .cls-2 {
        opacity: .3;
      }

      .cls-3 {
        opacity: .5;
      }

      .cls-4 {
        opacity: .9;
      }

      .cls-5 {
        opacity: .8;
      }

      .cls-6 {
        fill: #f99746;
      }

      .cls-6, .cls-7, .cls-8, .cls-9, .cls-10, .cls-11, .cls-12, .cls-13, .cls-14, .cls-15, .cls-16, .cls-17, .cls-18, .cls-19, .cls-20, .cls-21, .cls-22, .cls-23, .cls-24, .cls-25 {
        stroke-width: 0px;
      }

      .cls-7 {
        fill: #2b478b;
      }

      .cls-8 {
        fill: #6376e5;
      }

      .cls-9 {
        fill: #94b0ed;
      }

      .cls-10 {
        fill: #2e3552;
      }

      .cls-11 {
        fill: #0d2644;
      }

      .cls-12 {
        fill: #233862;
      }

      .cls-13 {
        fill: #163560;
      }

      .cls-14 {
        fill: #db6b3a;
      }

      .cls-15 {
        fill: #aec3ff;
      }

      .cls-16 {
        fill: #afcdfb;
      }

      .cls-17 {
        fill: #cde0fb;
      }

      .cls-18 {
        fill: #fff;
      }

      .cls-19 {
        fill: #ffc49c;
      }

      .cls-20 {
        fill: #ffb27d;
      }

      .cls-21 {
        fill: #ed975d;
      }

      .cls-22 {
        fill: #ed985f;
      }

      .cls-23 {
        fill: #ebf3fa;
      }

      .cls-24 {
        fill: #ed7d2b;
      }

      .cls-25 {
        fill: #f78248;
      }
    </style>
  </defs>
  <g id="_лой_1" data-name="‘лой_1">
    <g>
      <path class="cls-23" d="m159.99,1682.79s-292.23-377.15,12.52-705.5C511.22,612.37,191.2,204.08,528.68,58.72c475.89-204.97,561.19,200.44,1094.12,99.94,445.02-83.92,435.57,571.78,304.05,805.78-109.05,194.02,311.23,290.18,96.11,717.47l-1862.97.88Z"/>
      <g>
        <g class="cls-2">
          <path class="cls-15" d="m1265.53,674.4s46.16-224.59,223-254.27c0,0,34.42-5.24,47.03,32.46,12.61,37.7-56.07,39.97-98.08,56.5-42.01,16.53-139.11,84.26-171.95,165.3Z"/>
        </g>
        <g class="cls-2">
          <path class="cls-15" d="m1260.29,632.77s-23.81-184.24,103.85-253.57c0,0,24.99-13.09,44.58,12.48,19.59,25.57-32.43,45.4-60.26,69.13-27.83,23.74-84.37,101.22-88.18,171.96Z"/>
        </g>
      </g>
      <path class="cls-17" d="m543.15,565.38c21.66-61.62,126.3-34.16,126.3-34.16,0,0,63.94,115.33,84.7,119.49,20.76,4.16-35.41-109.28-35.41-109.28,40.89-.94,140.7,56.45,140.7,56.45,0,0-16,127.88,5.15,126.8,21.15-1.08,8.39-113.95,8.39-113.95,38.43,14.68,71.73,63.22,71.73,63.22,40.35,78.03-61.94,125.81-61.94,125.81,0,0-4.59,44.44,19.16,97.54h0s5.51,9.89,10.64,26.39l-10.71-.79c-.66-2.94-1.42-5.78-2.29-8.53,0-.02,0-.04-.02-.05-.01-.04-.03-.08-.04-.12-.61-1.71-1.49-4.14-2.6-7.11,0,0,0,0,0-.01,0,0,0,0,0-.01-2.8-6.65-4.66-11.54-5.81-15.06,0-.01,0-.02,0-.03-8.33-20.83-20.52-48.08-29.54-54.27,0,0,1.31-1.58,2.65-4.75-.85,1.51-1.73,3.09-2.65,4.75-21.23,37.94-113.4,37.74-163.71,23.5-50.31-14.24-26.98-27.01,2.24-48.37,29.23-21.36,86.4-10.95,104.11-18.87,17.7-7.92-6.51-18.92-40.76-18.8-34.25.11-53.78,32.91-109.18,34.1-55.4,1.19-89.69-105.37-89.69-105.37,37.12,14.58,106.77-1.36,110.35-14.26,3.58-12.91-97.37-19.02-112.8-24.11-15.43-5.09-40.62-38.55-18.96-100.16Z"/>
      <path class="cls-16" d="m382.77,1533.88c-37.94-66.17,66.2-137.71,66.2-137.71,0,0,150.74,31.5,170.27,16.32,19.53-15.18-123.62-52.09-123.62-52.09,30.38-36.87,157.28-81.29,157.28-81.29,0,0,100.83,111.74,116.02,92.22,15.19-19.52-94.33-94.38-94.33-94.38,42.3-22.76,110.63-15.15,110.63-15.15,99.77,23.89,63.94,150.77,63.94,150.77,0,0,35.78,37.97,100.84,57.51h0s12.95,2.67,31.44,10.73l-8.87,8.87c-3.1-1.66-6.2-3.16-9.29-4.48-.02-.02-.03-.02-.06-.02-.04-.02-.09-.04-.13-.06-1.98-.76-4.8-1.84-8.27-3.13,0,0,0,0-.01,0,0,0-.01,0-.02,0-8.01-2.6-13.76-4.69-17.75-6.36-.01,0-.02-.01-.04-.02-24.77-8.54-58.16-18.55-70.52-15.3,0,0-.4-2.36-2.17-5.97.69,1.9,1.41,3.89,2.17,5.97,17.34,47.72-53.18,129.04-104.16,162.65-50.98,33.61-44.47,3.24-41.04-38.9,3.43-42.14,56.26-84.74,62.77-106.42,6.51-21.69-21.69-8.68-47.73,21.68-26.04,30.36-11.95,72.66-53.18,122.54-41.23,49.88-161.59-1.13-161.59-1.13,41.22-21.68,80.28-95.41,71.61-108.43-8.67-13.02-91.12,71.55-107.39,81.31-16.27,9.76-65.07,6.49-103.01-59.68Z"/>
      <g class="cls-3">
        <path class="cls-16" d="m1835.63,651.61c-7.36-68.58-121.57-65.66-121.57-65.66,0,0-93.62,103.08-115.97,102.34-22.35-.74,62.83-103.76,62.83-103.76-41.81-10.86-158.29,24-158.29,24,0,0-14.48,135.32-35.96,129.1-21.48-6.22,18.94-119.16,18.94-119.16-43.05,5.8-89.02,47.64-89.02,47.64-60.35,70.45,33.24,144.31,33.24,144.31,0,0-6.03,46.79-43.28,95.63h0s-8.06,8.83-17.32,24.55l11.2,1.78c1.39-2.86,2.86-5.6,4.42-8.21,0-.02.01-.04.03-.05.02-.04.05-.08.07-.11,1.04-1.61,2.54-3.9,4.39-6.68,0,0,0,0,0-.01,0,0,0,0,0-.01,4.49-6.16,7.59-10.74,9.62-14.08,0-.01.01-.02.02-.03,13.6-19.4,32.73-44.46,43.49-48.64,0,0-.96-1.94-1.58-5.52.5,1.76,1.03,3.59,1.58,5.52,12.65,44.14,107.44,66.22,162.6,63.76,55.16-2.47,34.27-21.24,9.39-50.26-24.88-29.02-86.17-32.16-102.45-44.57-16.28-12.42,11.27-17.87,46.44-9.47,35.18,8.4,47.32,46.84,103.98,61.46,56.66,14.62,117.68-86.62,117.68-86.62-41.68,6.02-109.42-27.22-109.99-41.35-.56-14.13,104.69,4,121.78,2.5,17.09-1.5,51.08-29.8,43.72-98.37Z"/>
      </g>
      <g class="cls-1">
        <path class="cls-16" d="m1895.62,1485.81c75.66-62.09-16.66-195.36-16.66-195.36,0,0-195.18-30.9-211.68-58-16.51-27.1,172.03-6.17,172.03-6.17-19.64-58.06-151.63-169.18-151.63-169.18,0,0-171.86,88.1-181.19,57.76-9.33-30.33,156.16-70.24,156.16-70.24-40.38-46.58-125.8-68.58-125.8-68.58-130.57-16.8-145.4,151.73-145.4,151.73,0,0-60.22,29.25-147.17,23.04h0s-16.75-2.69-42.61-1.46l6.6,14.68c4.48-.57,8.88-.96,13.19-1.14.03-.01.05-.01.08,0,.06,0,.12,0,.19,0,2.72-.01,6.6-.02,11.34.01,0,0,.01,0,.02,0,0,0,.01,0,.02,0,10.8.54,18.65.65,24.19.46.02,0,.03,0,.05,0,33.61,1.04,78.22,4.25,91.56,13.77,0,0,1.55-2.65,5.32-6.17-1.7,1.97-3.46,4.02-5.32,6.17-42.54,49.35,5,179.03,50.85,242.57,45.85,63.54,51.87,24.15,66.95-27.96,15.09-52.11-28.88-127.28-26.81-156.27,2.07-28.98,29.97-.53,47.38,47.75,17.4,48.28-18.77,92.61,7.96,171.22,26.73,78.62,194.36,72.27,194.36,72.27-39.57-44.79-52.83-151.04-36.5-162.7,16.33-11.66,76.71,127.35,91.78,146.47,15.07,19.12,75.11,37.43,150.76-24.66Z"/>
      </g>
      <g id="man">
        <path class="cls-20" d="m732.59,1019.97c-3.59,9.66-9.82,20.87-16.35,23.65-7.41,3.16-10.5,7.62-10.5,7.62l-5.98-3.47-7.14-4.15s.17-.79.52-2.08c.34-1.29.88-3.08,1.6-5.06,0,0,2.19-2.82.85-6.36-1.34-3.53-1.07-9,1.22-12.33,2.29-3.33,4.5-11.53,5.88-11.29,3.34.57-1.64,11.85-.21,13.94,1.29,1.89,2.91,1.24,3.21,1.1.02-.01.04-.02.06-.03,9.37-4.12,20.74-26.34,25.77-23.34,1.88,1.12,2.61,17.69,1.08,21.8Z"/>
        <g>
          <path class="cls-7" d="m700.17,1033.42l11.74,8.25c.83.58,1.98.38,2.57-.45l30.08-42.79c.58-.83.38-1.98-.45-2.57l-11.74-8.25c-.83-.58-1.98-.38-2.57.45l-30.08,42.79c-.58.83-.38,1.98.45,2.57Z"/>
          <path class="cls-12" d="m710.92,1040.97l6.88,4.84c.63.44,1.51.29,1.95-.34l30.58-43.51c.44-.63.29-1.51-.34-1.95l-6.88-4.84c-.63-.44-1.51-.29-1.95.34l-30.58,43.52c-.44.63-.29,1.51.34,1.95Z"/>
        </g>
        <path class="cls-9" d="m531.74,972.01s59.74,104.2,81.41,123.37l79.47-59.25s11.53,3.54,16.58,15.11c0,0-48.26,98.32-95.77,102.49-47.51,4.17-114.2-117.85-114.2-117.85l32.51-63.88Z"/>
        <g>
          <path class="cls-12" d="m396.55,1680.71h-34.52c-4.35-2.36-8.22-7.76-9.44-15.82-1.69-11.12-14.15-17.18-16.85-26.28-2.69-9.09,11.12-21.89,11.12-21.89l2.31-2.98,2.4-3.09,22.91,5.39s.57,5.46.91,12.41c.25,5.01.38,10.81.1,15.89-.67,12.13,3.39,25.19,14.17,27.55,7.97,1.74,7.61,6.47,6.88,8.82Z"/>
          <path class="cls-12" d="m596.88,1680.71h-78.94c-3.8-4.63-2.4-21.73-1.82-27.31.12-1.12.2-1.78.2-1.78,0,0,26.96-21.56,30.66-5.05.11.52.25,1.02.4,1.52,4.66,15.44,25.59,22.46,37.67,24.41,7.85,1.27,10.76,5.36,11.83,8.21Z"/>
          <path class="cls-6" d="m581.83,1240.09s-4.09,51.07-8.9,112.45c-6.54,83.39-14.4,185.82-15.18,205.22-1.34,33.69-6.74,87.59-6.74,87.59,0,0-12.79,12.8-38.4,7.41,0,0-22.82-76.94-29.34-158.35-.1-1.33-.2-2.68-.3-4.02-6.06-82.87-15.49-257.38-15.49-257.38l114.36,7.07Z"/>
          <path class="cls-24" d="m581.83,1240.09s-4.09,51.07-8.9,112.45l-89.66,141.87c-.1-1.33-.2-2.68-.3-4.02-6.06-82.87-15.49-257.38-15.49-257.38l114.36,7.07Z"/>
          <path class="cls-6" d="m563.14,1246.15s-73.78,184.95-122.29,271.86c-48.51,86.92-63.67,111.17-63.67,111.17,0,0-27.79-11.12-30.32-18.7,0,0,18.55-167.79,51.04-208.7,18.36-23.11,39.92-92.47,40.93-116.73,1.01-24.25,6.57-72.26,6.57-72.26l117.74,33.35Z"/>
        </g>
        <path class="cls-20" d="m544.78,976.54c-28.83,9.1-78.71-15.45-78.71-15.45,0,0,26.58-19.95,25.19-61.43l22.29,17.96,15.14,12.2s-.06,7.19-1.72,19.8c-.44,3.32,3.3,10.63,6.55,14.74,8.74,11.09,11.26,12.18,11.26,12.18Z"/>
        <path class="cls-21" d="m528.68,929.82s-.06,7.19-1.72,19.8c-16.78-2.88-35.81-30-35.81-30,8.54-2.47,16.02-2.91,22.39-2l15.14,12.2Z"/>
        <path class="cls-20" d="m537.5,929.14s-47.62,7.91-52.09-21.82c-4.47-29.73-13.63-48.73,16.59-55.04,30.22-6.31,37.84,4.15,41.75,13.71,3.91,9.56,6.03,60.33-6.25,63.16Z"/>
        <path class="cls-15" d="m585.02,1244.34c-.87.72-1.88,1.15-3.03,1.15-10.83-.15-42.4,5.87-69.11,3.12-22.52-2.16-42.45-8.83-63.86-18.43-2.84-1.27-9.38-4.77-9.24-7.94.1-3.48.44-8.52.88-14.88,1.52-22.09,4.16-60.1,1.58-103.94-.46-8.16-.71-16.26-.74-24.23-.22-59.42,11.56-111.68,35.24-129.37,2.02-1.45,14.44,4.62,25.84,10.25,10.54,5.2,21.08,5.77,31.04,3.76l9.96,8.8c12.13,11.26,25.41,26.57,31.18,49.81,4.91,19.78,7.8,55.44,9.38,92.4.72,16.75,1.3,33.64,1.45,49.67v.57c.14,1.59.14,3.33.14,4.91.58,41.14,0,73.77-.72,74.35Z"/>
        <path class="cls-9" d="m440.66,1207.37c1.52-22.09,4.16-60.1,1.58-103.94-.46-8.16-.71-16.26-.74-24.23,9.86-23.93,17.92-41.28,17.92-41.28h24.86s18.23,124.49-43.63,169.45Z"/>
        <g>
          <path class="cls-12" d="m313.32,1348.46l106.02,15.11c13.8,1.97,26.7-7.71,28.66-21.51l6.55-45.95c1.97-13.8-7.71-26.7-21.51-28.66l-106.02-15.11c-13.8-1.97-26.7,7.71-28.66,21.51l-6.55,45.95c-1.97,13.8,7.71,26.7,21.51,28.66Z"/>
          <path class="cls-7" d="m439.02,1281.14h0c-2.98-7.46-9.41-13.35-17.56-15.35h0s-.01,0-.02,0c-.8-.19-1.61-.36-2.45-.47l-21.11-3,1.41-9.92c.32-2.21-.25-4.42-1.6-6.22-1.35-1.79-3.32-2.96-5.53-3.27l-5.51-.79-22.17-3.16-4-.57c-4.58-.65-8.84,2.54-9.49,7.12l-1.41,9.92-36.44-5.19c-13.85-1.97-26.79,7.74-28.77,21.59l-6.62,46.48c-1.97,13.85,7.74,26.79,21.59,28.77l105.83,15.09c1.87.27,3.72.32,5.52.17h.02c2.9-.22,5.68-.94,8.26-2.09,7.78-3.43,13.69-10.69,14.97-19.69l6.62-46.47c.64-4.53.04-8.96-1.55-12.94Zm-82.82-34.89c.2-1.39,1.29-2.44,2.6-2.65.31-.05.62-.06.94-.01l4.71.67,17.45,2.49,9.51,1.36c1.71.24,2.9,1.84,2.66,3.54l-1.41,9.92-37.87-5.4,1.41-9.91Z"/>
        </g>
        <path class="cls-20" d="m393.94,1211.65s-5.57,7.42-5.79,10.38c-1.5,20.09,7.68,22.86-16.08,34.02,0,0-10.14,3.87-10.32-4.01-.17-7.87,7.04-8,5.72-19.03-1.52-12.72-1.37-12.84,6.98-19.48l5.53-9.14,13.96,7.25Z"/>
        <path class="cls-15" d="m379.78,1217.33c8.95,1.75,18.66,1.04,18.66,1.04,0,0,26.58-82.1,30-89.6,3.42-7.5,78.94-96.26,78.94-96.26l-31.46-78.73s-81.68,136.44-89.98,155.61c-13.71,31.68-18.46,102.71-18.46,102.71,0,0,5.28,3.86,12.31,5.23Z"/>
        <path class="cls-7" d="m485.37,904.46s4.89-.82,4.1-7.55c-.79-6.73-.78-15.53,4.69-13.89,5.47,1.64,5.74,6.02,7.99,3.46,2.25-2.56,2.29-13.34,18.57-14.09,16.28-.75,22.9,4.92,30.47,1.59,7.57-3.33,7.97-14.79,7.97-14.79,0,0-2.15,4.09-5.41,5.39,0,0,12.63-17.28-1.99-29.13-14.63-11.85-29.54-4.09-38.01-3.58-18.65,1.13-30.7,2.25-36.79,14.5-6.09,12.25-3.58,46.28,8.39,58.08Z"/>
        <path class="cls-20" d="m385.16,1220.48s5.36,5.59,5.7,7.91c1.09,7.46,3.58,10.69,2.33,11.5-2.6,1.69-6.03-3.84-7.67-8.8-1.64-4.96-.35-10.62-.35-10.62Z"/>
      </g>
      <g>
        <rect class="cls-8" x="797.6" y="564.76" width="635.1" height="1107.44" rx="58.87" ry="58.87"/>
        <path class="cls-7" d="m1373.83,1679.59h-517.37c-36.53,0-66.26-29.72-66.26-66.26v-989.7c0-36.53,29.72-66.26,66.26-66.26h517.37c36.53,0,66.25,29.72,66.25,66.26v989.7c0,36.53-29.72,66.26-66.25,66.26ZM856.47,572.15c-28.38,0-51.48,23.09-51.48,51.48v989.7c0,28.39,23.09,51.48,51.48,51.48h517.37c28.38,0,51.48-23.09,51.48-51.48v-989.7c0-28.38-23.09-51.48-51.48-51.48h-517.37Z"/>
      </g>
      <g>
        <g>
          <g class="cls-4">
            <rect class="cls-18" x="906.29" y="856.17" width="417.72" height="417.72"/>
          </g>
          <rect class="cls-7" x="948.16" y="1230.05" width="16.6" height="16.6"/>
          <rect class="cls-7" x="964.76" y="1230.05" width="16.6" height="16.6"/>
          <rect class="cls-7" x="981.36" y="1230.05" width="16.6" height="16.6"/>
          <rect class="cls-7" x="997.96" y="1230.05" width="16.6" height="16.6"/>
          <rect class="cls-7" x="1014.57" y="1230.05" width="16.6" height="16.6"/>
          <rect class="cls-7" x="1047.77" y="1230.05" width="16.6" height="16.6"/>
          <rect class="cls-7" x="1064.37" y="1230.05" width="16.6" height="16.6"/>
          <rect class="cls-7" x="1114.17" y="1230.05" width="16.6" height="16.6"/>
          <rect class="cls-7" x="1147.37" y="1230.05" width="17.58" height="16.6"/>
          <rect class="cls-7" x="1164.95" y="1230.05" width="16.6" height="16.6"/>
          <rect class="cls-7" x="1198.15" y="1230.05" width="16.6" height="16.6"/>
          <rect class="cls-7" x="1214.75" y="1230.05" width="16.6" height="16.6"/>
          <rect class="cls-7" x="1231.36" y="1230.05" width="16.6" height="16.6"/>
          <rect class="cls-7" x="1247.96" y="1230.05" width="16.6" height="16.6"/>
          <rect class="cls-7" x="1264.56" y="1230.05" width="16.6" height="16.6"/>
          <rect class="cls-7" x="1281.16" y="1230.05" width="17.58" height="16.6"/>
          <rect class="cls-7" x="931.56" y="1230.05" width="16.6" height="16.6"/>
          <rect class="cls-7" x="1014.57" y="1213.45" width="16.6" height="16.6"/>
          <rect class="cls-7" x="1064.37" y="1213.45" width="16.6" height="16.6"/>
          <rect class="cls-7" x="1097.57" y="1213.45" width="16.6" height="16.6"/>
          <rect class="cls-7" x="1114.17" y="1213.45" width="16.6" height="16.6"/>
          <rect class="cls-7" x="1130.77" y="1213.45" width="16.6" height="16.6"/>
          <rect class="cls-7" x="1147.37" y="1213.45" width="17.58" height="16.6"/>
          <rect class="cls-7" x="1198.15" y="1213.45" width="16.6" height="16.6"/>
          <rect class="cls-7" x="1281.16" y="1213.45" width="17.58" height="16.6"/>
          <rect class="cls-7" x="931.56" y="1213.45" width="16.6" height="16.6"/>
          <rect class="cls-7" x="964.76" y="1196.85" width="16.6" height="16.6"/>
          <rect class="cls-7" x="981.36" y="1196.85" width="16.6" height="16.6"/>
          <rect class="cls-7" x="1014.57" y="1196.85" width="16.6" height="16.6"/>
          <rect class="cls-7" x="1047.77" y="1196.85" width="16.6" height="16.6"/>
          <rect class="cls-7" x="1064.37" y="1196.85" width="16.6" height="16.6"/>
          <rect class="cls-7" x="1080.97" y="1196.85" width="16.6" height="16.6"/>
          <rect class="cls-7" x="1114.17" y="1196.85" width="16.6" height="16.6"/>
          <rect class="cls-7" x="1130.77" y="1196.85" width="16.6" height="16.6"/>
          <rect class="cls-7" x="1147.37" y="1196.85" width="17.58" height="16.6"/>
          <rect class="cls-7" x="1164.95" y="1196.85" width="16.6" height="16.6"/>
          <rect class="cls-7" x="1198.15" y="1196.85" width="16.6" height="16.6"/>
          <rect class="cls-7" x="1231.36" y="1196.85" width="16.6" height="16.6"/>
          <rect class="cls-7" x="1247.96" y="1196.85" width="16.6" height="16.6"/>
          <rect class="cls-7" x="1281.16" y="1196.85" width="17.58" height="16.6"/>
          <rect class="cls-7" x="931.56" y="1196.85" width="16.6" height="16.6"/>
          <rect class="cls-7" x="964.76" y="1180.25" width="16.6" height="16.6"/>
          <rect class="cls-7" x="981.36" y="1180.25" width="16.6" height="16.6"/>
          <rect class="cls-7" x="1014.57" y="1180.25" width="16.6" height="16.6"/>
          <rect class="cls-7" x="1047.77" y="1180.25" width="16.6" height="16.6"/>
          <rect class="cls-7" x="1080.97" y="1180.25" width="16.6" height="16.6"/>
          <rect class="cls-7" x="1114.17" y="1180.25" width="16.6" height="16.6"/>
          <rect class="cls-7" x="1198.15" y="1180.25" width="16.6" height="16.6"/>
          <rect class="cls-7" x="1231.36" y="1180.25" width="16.6" height="16.6"/>
          <rect class="cls-7" x="1247.96" y="1180.25" width="16.6" height="16.6"/>
          <rect class="cls-7" x="1281.16" y="1180.25" width="17.58" height="16.6"/>
          <rect class="cls-7" x="931.56" y="1180.25" width="16.6" height="16.6"/>
          <rect class="cls-7" x="1014.57" y="1163.65" width="16.6" height="16.6"/>
          <rect class="cls-7" x="1047.77" y="1163.65" width="16.6" height="16.6"/>
          <rect class="cls-7" x="1064.37" y="1163.65" width="16.6" height="16.6"/>
          <rect class="cls-7" x="1080.97" y="1163.65" width="16.6" height="16.6"/>
          <rect class="cls-7" x="1114.17" y="1163.65" width="16.6" height="16.6"/>
          <rect class="cls-7" x="1130.77" y="1163.65" width="16.6" height="16.6"/>
          <rect class="cls-7" x="1164.95" y="1163.65" width="16.6" height="16.6"/>
          <rect class="cls-7" x="1198.15" y="1163.65" width="16.6" height="16.6"/>
          <rect class="cls-7" x="1281.16" y="1163.65" width="17.58" height="16.6"/>
          <rect class="cls-7" x="931.56" y="1163.65" width="16.6" height="16.6"/>
          <rect class="cls-7" x="948.16" y="1147.05" width="16.6" height="16.6"/>
          <rect class="cls-7" x="964.76" y="1147.05" width="16.6" height="16.6"/>
          <rect class="cls-7" x="981.36" y="1147.05" width="16.6" height="16.6"/>
          <rect class="cls-7" x="997.96" y="1147.05" width="16.6" height="16.6"/>
          <rect class="cls-7" x="1014.57" y="1147.05" width="16.6" height="16.6"/>
          <rect class="cls-7" x="1047.77" y="1147.05" width="16.6" height="16.6"/>
          <rect class="cls-7" x="1080.97" y="1147.05" width="16.6" height="16.6"/>
          <rect class="cls-7" x="1097.57" y="1147.05" width="16.6" height="16.6"/>
          <rect class="cls-7" x="1130.77" y="1147.05" width="16.6" height="16.6"/>
          <rect class="cls-7" x="1198.15" y="1147.05" width="16.6" height="16.6"/>
          <rect class="cls-7" x="1214.75" y="1147.05" width="16.6" height="16.6"/>
          <rect class="cls-7" x="1231.36" y="1147.05" width="16.6" height="16.6"/>
          <rect class="cls-7" x="1247.96" y="1147.05" width="16.6" height="16.6"/>
          <rect class="cls-7" x="1264.56" y="1147.05" width="16.6" height="16.6"/>
          <rect class="cls-7" x="1281.16" y="1147.05" width="17.58" height="16.6"/>
          <rect class="cls-7" x="931.56" y="1147.05" width="16.6" height="16.6"/>
          <rect class="cls-7" x="1097.57" y="1130.45" width="16.6" height="16.6"/>
          <rect class="cls-7" x="1114.17" y="1130.45" width="16.6" height="16.6"/>
          <rect class="cls-7" x="1130.77" y="1130.45" width="16.6" height="16.6"/>
          <rect class="cls-7" x="1164.95" y="1130.45" width="16.6" height="16.6"/>
          <rect class="cls-7" x="948.16" y="1113.85" width="16.6" height="16.6"/>
          <rect class="cls-7" x="964.76" y="1113.85" width="16.6" height="16.6"/>
          <rect class="cls-7" x="981.36" y="1113.85" width="16.6" height="16.6"/>
          <rect class="cls-7" x="997.96" y="1113.85" width="16.6" height="16.6"/>
          <rect class="cls-7" x="1047.77" y="1113.85" width="16.6" height="16.6"/>
          <rect class="cls-7" x="1064.37" y="1113.85" width="16.6" height="16.6"/>
          <rect class="cls-7" x="1080.97" y="1113.85" width="16.6" height="16.6"/>
          <rect class="cls-7" x="1114.17" y="1113.85" width="16.6" height="16.6"/>
          <rect class="cls-7" x="1130.77" y="1113.85" width="16.6" height="16.6"/>
          <rect class="cls-7" x="1147.37" y="1113.85" width="17.58" height="16.6"/>
          <rect class="cls-7" x="1164.95" y="1113.85" width="16.6" height="16.6"/>
          <rect class="cls-7" x="1181.55" y="1113.85" width="16.6" height="16.6"/>
          <rect class="cls-7" x="1198.15" y="1113.85" width="16.6" height="16.6"/>
          <rect class="cls-7" x="1214.75" y="1113.85" width="16.6" height="16.6"/>
          <rect class="cls-7" x="1231.36" y="1113.85" width="16.6" height="16.6"/>
          <rect class="cls-7" x="1264.56" y="1113.85" width="16.6" height="16.6"/>
          <rect class="cls-7" x="1281.16" y="1113.85" width="17.58" height="16.6"/>
          <rect class="cls-7" x="964.76" y="1097.25" width="16.6" height="16.6"/>
          <rect class="cls-7" x="981.36" y="1097.25" width="16.6" height="16.6"/>
          <rect class="cls-7" x="1031.17" y="1097.25" width="16.6" height="16.6"/>
          <rect class="cls-7" x="1047.77" y="1097.25" width="16.6" height="16.6"/>
          <rect class="cls-7" x="1080.97" y="1097.25" width="16.6" height="16.6"/>
          <rect class="cls-7" x="1130.77" y="1097.25" width="16.6" height="16.6"/>
          <rect class="cls-7" x="1164.95" y="1097.25" width="16.6" height="16.6"/>
          <rect class="cls-7" x="1181.55" y="1097.25" width="16.6" height="16.6"/>
          <rect class="cls-7" x="1214.75" y="1097.25" width="16.6" height="16.6"/>
          <rect class="cls-7" x="1231.36" y="1097.25" width="16.6" height="16.6"/>
          <rect class="cls-7" x="948.16" y="1080.65" width="16.6" height="16.6"/>
          <rect class="cls-7" x="981.36" y="1080.65" width="16.6" height="16.6"/>
          <rect class="cls-7" x="997.96" y="1080.65" width="16.6" height="16.6"/>
          <rect class="cls-7" x="1014.57" y="1080.65" width="16.6" height="16.6"/>
          <rect class="cls-7" x="1031.17" y="1080.65" width="16.6" height="16.6"/>
          <rect class="cls-7" x="1064.37" y="1080.65" width="16.6" height="16.6"/>
          <rect class="cls-7" x="1080.97" y="1080.65" width="16.6" height="16.6"/>
          <rect class="cls-7" x="1097.57" y="1080.65" width="16.6" height="16.6"/>
          <rect class="cls-7" x="1114.17" y="1080.65" width="16.6" height="16.6"/>
          <rect class="cls-7" x="1130.77" y="1080.65" width="16.6" height="16.6"/>
          <rect class="cls-7" x="1147.37" y="1080.65" width="17.58" height="16.6"/>
          <rect class="cls-7" x="1231.36" y="1080.65" width="16.6" height="16.6"/>
          <rect class="cls-7" x="1247.96" y="1080.65" width="16.6" height="16.6"/>
          <rect class="cls-7" x="1281.16" y="1080.65" width="17.58" height="16.6"/>
          <rect class="cls-7" x="931.56" y="1080.65" width="16.6" height="16.6"/>
          <rect class="cls-7" x="948.16" y="1064.05" width="16.6" height="16.6"/>
          <rect class="cls-7" x="964.76" y="1064.05" width="16.6" height="16.6"/>
          <rect class="cls-7" x="981.36" y="1064.05" width="16.6" height="16.6"/>
          <rect class="cls-7" x="1047.77" y="1064.05" width="16.6" height="16.6"/>
          <rect class="cls-7" x="1064.37" y="1064.05" width="16.6" height="16.6"/>
          <rect class="cls-7" x="1130.77" y="1064.05" width="16.6" height="16.6"/>
          <rect class="cls-7" x="1181.55" y="1064.05" width="16.6" height="16.6"/>
          <rect class="cls-7" x="1198.15" y="1064.05" width="16.6" height="16.6"/>
          <rect class="cls-7" x="1231.36" y="1064.05" width="16.6" height="16.6"/>
          <rect class="cls-7" x="1247.96" y="1064.05" width="16.6" height="16.6"/>
          <rect class="cls-7" x="1264.56" y="1064.05" width="16.6" height="16.6"/>
          <rect class="cls-7" x="1281.16" y="1064.05" width="17.58" height="16.6"/>
          <rect class="cls-7" x="931.56" y="1064.05" width="16.6" height="16.6"/>
          <rect class="cls-7" x="981.36" y="1047.45" width="16.6" height="16.6"/>
          <rect class="cls-7" x="997.96" y="1047.45" width="16.6" height="16.6"/>
          <rect class="cls-7" x="1014.57" y="1047.45" width="16.6" height="16.6"/>
          <rect class="cls-7" x="1031.17" y="1047.45" width="16.6" height="16.6"/>
          <rect class="cls-7" x="1047.77" y="1047.45" width="16.6" height="16.6"/>
          <rect class="cls-7" x="1064.37" y="1047.45" width="16.6" height="16.6"/>
          <rect class="cls-7" x="1114.17" y="1047.45" width="16.6" height="16.6"/>
          <rect class="cls-7" x="1164.95" y="1047.45" width="16.6" height="16.6"/>
          <rect class="cls-7" x="1181.55" y="1047.45" width="16.6" height="16.6"/>
          <rect class="cls-7" x="1247.96" y="1047.45" width="16.6" height="16.6"/>
          <rect class="cls-7" x="931.56" y="1047.45" width="16.6" height="16.6"/>
          <rect class="cls-7" x="948.16" y="1030.85" width="16.6" height="16.6"/>
          <rect class="cls-7" x="964.76" y="1030.85" width="16.6" height="16.6"/>
          <rect class="cls-7" x="981.36" y="1030.85" width="16.6" height="16.6"/>
          <rect class="cls-7" x="997.96" y="1030.85" width="16.6" height="16.6"/>
          <rect class="cls-7" x="1031.17" y="1030.85" width="16.6" height="16.6"/>
          <rect class="cls-7" x="1064.37" y="1030.85" width="16.6" height="16.6"/>
          <rect class="cls-7" x="1080.97" y="1030.85" width="16.6" height="16.6"/>
          <rect class="cls-7" x="1114.17" y="1030.85" width="16.6" height="16.6"/>
          <rect class="cls-7" x="1130.77" y="1030.85" width="16.6" height="16.6"/>
          <rect class="cls-7" x="1147.37" y="1030.85" width="17.58" height="16.6"/>
          <rect class="cls-7" x="1164.95" y="1030.85" width="16.6" height="16.6"/>
          <rect class="cls-7" x="1198.15" y="1030.85" width="16.6" height="16.6"/>
          <rect class="cls-7" x="1214.75" y="1030.85" width="16.6" height="16.6"/>
          <rect class="cls-7" x="1231.36" y="1030.85" width="16.6" height="16.6"/>
          <rect class="cls-7" x="1247.96" y="1030.85" width="16.6" height="16.6"/>
          <rect class="cls-7" x="1281.16" y="1030.85" width="17.58" height="16.6"/>
          <rect class="cls-7" x="948.16" y="1014.24" width="16.6" height="16.6"/>
          <rect class="cls-7" x="981.36" y="1014.24" width="16.6" height="16.6"/>
          <rect class="cls-7" x="1014.57" y="1014.24" width="16.6" height="16.6"/>
          <rect class="cls-7" x="1031.17" y="1014.24" width="16.6" height="16.6"/>
          <rect class="cls-7" x="1080.97" y="1014.24" width="16.6" height="16.6"/>
          <rect class="cls-7" x="1097.57" y="1014.24" width="16.6" height="16.6"/>
          <rect class="cls-7" x="1114.17" y="1014.24" width="16.6" height="16.6"/>
          <rect class="cls-7" x="1147.37" y="1014.24" width="17.58" height="16.6"/>
          <rect class="cls-7" x="1164.95" y="1014.24" width="16.6" height="16.6"/>
          <rect class="cls-7" x="1181.55" y="1014.24" width="16.6" height="16.6"/>
          <rect class="cls-7" x="1214.75" y="1014.24" width="16.6" height="16.6"/>
          <rect class="cls-7" x="1247.96" y="1014.24" width="16.6" height="16.6"/>
          <rect class="cls-7" x="1264.56" y="1014.24" width="16.6" height="16.6"/>
          <rect class="cls-7" x="1281.16" y="1014.24" width="17.58" height="16.6"/>
          <rect class="cls-7" x="931.56" y="1014.24" width="16.6" height="16.6"/>
          <rect class="cls-7" x="948.16" y="997.64" width="16.6" height="16.6"/>
          <rect class="cls-7" x="1014.57" y="997.64" width="16.6" height="16.6"/>
          <rect class="cls-7" x="1031.17" y="997.64" width="16.6" height="16.6"/>
          <rect class="cls-7" x="1064.37" y="997.64" width="16.6" height="16.6"/>
          <rect class="cls-7" x="1080.97" y="997.64" width="16.6" height="16.6"/>
          <rect class="cls-7" x="1114.17" y="997.64" width="16.6" height="16.6"/>
          <rect class="cls-7" x="1130.77" y="997.64" width="16.6" height="16.6"/>
          <rect class="cls-7" x="1164.95" y="997.64" width="16.6" height="16.6"/>
          <rect class="cls-7" x="1181.55" y="997.64" width="16.6" height="16.6"/>
          <rect class="cls-7" x="1198.15" y="997.64" width="16.6" height="16.6"/>
          <rect class="cls-7" x="1214.75" y="997.64" width="16.6" height="16.6"/>
          <rect class="cls-7" x="1231.36" y="997.64" width="16.6" height="16.6"/>
          <rect class="cls-7" x="1247.96" y="997.64" width="16.6" height="16.6"/>
          <rect class="cls-7" x="931.56" y="997.64" width="16.6" height="16.6"/>
          <rect class="cls-7" x="1064.37" y="981.04" width="16.6" height="16.6"/>
          <rect class="cls-7" x="1097.57" y="981.04" width="16.6" height="16.6"/>
          <rect class="cls-7" x="1114.17" y="981.04" width="16.6" height="16.6"/>
          <rect class="cls-7" x="1147.37" y="981.04" width="17.58" height="16.6"/>
          <rect class="cls-7" x="1164.95" y="981.04" width="16.6" height="16.6"/>
          <rect class="cls-7" x="1181.55" y="981.04" width="16.6" height="16.6"/>
          <rect class="cls-7" x="948.16" y="964.44" width="16.6" height="16.6"/>
          <rect class="cls-7" x="964.76" y="964.44" width="16.6" height="16.6"/>
          <rect class="cls-7" x="981.36" y="964.44" width="16.6" height="16.6"/>
          <rect class="cls-7" x="997.96" y="964.44" width="16.6" height="16.6"/>
          <rect class="cls-7" x="1014.57" y="964.44" width="16.6" height="16.6"/>
          <rect class="cls-7" x="1047.77" y="964.44" width="16.6" height="16.6"/>
          <rect class="cls-7" x="1064.37" y="964.44" width="16.6" height="16.6"/>
          <rect class="cls-7" x="1114.17" y="964.44" width="16.6" height="16.6"/>
          <rect class="cls-7" x="1181.55" y="964.44" width="16.6" height="16.6"/>
          <rect class="cls-7" x="1198.15" y="964.44" width="16.6" height="16.6"/>
          <rect class="cls-7" x="1231.36" y="964.44" width="16.6" height="16.6"/>
          <rect class="cls-7" x="1281.16" y="964.44" width="17.58" height="16.6"/>
          <rect class="cls-7" x="931.56" y="964.44" width="16.6" height="16.6"/>
          <rect class="cls-7" x="1014.57" y="947.84" width="16.6" height="16.6"/>
          <rect class="cls-7" x="1147.37" y="947.84" width="17.58" height="16.6"/>
          <rect class="cls-7" x="1164.95" y="947.84" width="16.6" height="16.6"/>
          <rect class="cls-7" x="1198.15" y="947.84" width="16.6" height="16.6"/>
          <rect class="cls-7" x="1214.75" y="947.84" width="16.6" height="16.6"/>
          <rect class="cls-7" x="1247.96" y="947.84" width="16.6" height="16.6"/>
          <rect class="cls-7" x="1264.56" y="947.84" width="16.6" height="16.6"/>
          <rect class="cls-7" x="1281.16" y="947.84" width="17.58" height="16.6"/>
          <rect class="cls-7" x="931.56" y="947.84" width="16.6" height="16.6"/>
          <rect class="cls-7" x="964.76" y="931.24" width="16.6" height="16.6"/>
          <rect class="cls-7" x="981.36" y="931.24" width="16.6" height="16.6"/>
          <rect class="cls-7" x="1014.57" y="931.24" width="16.6" height="16.6"/>
          <rect class="cls-7" x="1047.77" y="931.24" width="16.6" height="16.6"/>
          <rect class="cls-7" x="1064.37" y="931.24" width="16.6" height="16.6"/>
          <rect class="cls-7" x="1097.57" y="931.24" width="16.6" height="16.6"/>
          <rect class="cls-7" x="1114.17" y="931.24" width="16.6" height="16.6"/>
          <rect class="cls-7" x="1147.37" y="931.24" width="17.58" height="16.6"/>
          <rect class="cls-7" x="1214.75" y="931.24" width="16.6" height="16.6"/>
          <rect class="cls-7" x="1231.36" y="931.24" width="16.6" height="16.6"/>
          <rect class="cls-7" x="1247.96" y="931.24" width="16.6" height="16.6"/>
          <rect class="cls-7" x="931.56" y="931.24" width="16.6" height="16.6"/>
          <rect class="cls-7" x="964.76" y="914.64" width="16.6" height="16.6"/>
          <rect class="cls-7" x="981.36" y="914.64" width="16.6" height="16.6"/>
          <rect class="cls-7" x="1014.57" y="914.64" width="16.6" height="16.6"/>
          <rect class="cls-7" x="1047.77" y="914.64" width="16.6" height="16.6"/>
          <rect class="cls-7" x="1080.97" y="914.64" width="16.6" height="16.6"/>
          <rect class="cls-7" x="1097.57" y="914.64" width="16.6" height="16.6"/>
          <rect class="cls-7" x="1114.17" y="914.64" width="16.6" height="16.6"/>
          <rect class="cls-7" x="1130.77" y="914.64" width="16.6" height="16.6"/>
          <rect class="cls-7" x="1147.37" y="914.64" width="17.58" height="16.6"/>
          <rect class="cls-7" x="1181.55" y="914.64" width="16.6" height="16.6"/>
          <rect class="cls-7" x="1198.15" y="914.64" width="16.6" height="16.6"/>
          <rect class="cls-7" x="1214.75" y="914.64" width="16.6" height="16.6"/>
          <rect class="cls-7" x="1247.96" y="914.64" width="16.6" height="16.6"/>
          <rect class="cls-7" x="1264.56" y="914.64" width="16.6" height="16.6"/>
          <rect class="cls-7" x="1281.16" y="914.64" width="17.58" height="16.6"/>
          <rect class="cls-7" x="931.56" y="914.64" width="16.6" height="16.6"/>
          <rect class="cls-7" x="1014.57" y="898.04" width="16.6" height="16.6"/>
          <rect class="cls-7" x="1080.97" y="898.04" width="16.6" height="16.6"/>
          <rect class="cls-7" x="1097.57" y="898.04" width="16.6" height="16.6"/>
          <rect class="cls-7" x="1130.77" y="898.04" width="16.6" height="16.6"/>
          <rect class="cls-7" x="1147.37" y="898.04" width="17.58" height="16.6"/>
          <rect class="cls-7" x="1164.95" y="898.04" width="16.6" height="16.6"/>
          <rect class="cls-7" x="1181.55" y="898.04" width="16.6" height="16.6"/>
          <rect class="cls-7" x="1264.56" y="898.04" width="16.6" height="16.6"/>
          <rect class="cls-7" x="931.56" y="898.04" width="16.6" height="16.6"/>
          <rect class="cls-7" x="948.16" y="881.44" width="16.6" height="16.6"/>
          <rect class="cls-7" x="964.76" y="881.44" width="16.6" height="16.6"/>
          <rect class="cls-7" x="981.36" y="881.44" width="16.6" height="16.6"/>
          <rect class="cls-7" x="997.96" y="881.44" width="16.6" height="16.6"/>
          <rect class="cls-7" x="1014.57" y="881.44" width="16.6" height="16.6"/>
          <rect class="cls-7" x="1047.77" y="881.44" width="16.6" height="16.6"/>
          <rect class="cls-7" x="1064.37" y="881.44" width="16.6" height="16.6"/>
          <rect class="cls-7" x="1147.37" y="881.44" width="17.58" height="16.6"/>
          <rect class="cls-7" x="1181.55" y="881.44" width="16.6" height="16.6"/>
          <rect class="cls-7" x="1214.75" y="881.44" width="16.6" height="16.6"/>
          <rect class="cls-7" x="1231.36" y="881.44" width="16.6" height="16.6"/>
          <rect class="cls-7" x="1281.16" y="881.44" width="17.58" height="16.6"/>
          <rect class="cls-7" x="931.56" y="881.44" width="16.6" height="16.6"/>
        </g>
        <g class="cls-5">
          <path class="cls-18" d="m876.08,914.13c-3.26,0-5.9-2.64-5.9-5.9v-80.51c0-3.26,2.64-5.9,5.9-5.9h81.24c3.26,0,5.9,2.64,5.9,5.9s-2.64,5.9-5.9,5.9h-75.33v74.61c0,3.26-2.64,5.9-5.9,5.9Z"/>
          <path class="cls-18" d="m1354.22,914.49c-3.26,0-5.9-2.64-5.9-5.9v-75.33h-74.61c-3.26,0-5.9-2.64-5.9-5.9s2.64-5.9,5.9-5.9h80.51c3.26,0,5.9,2.64,5.9,5.9v81.24c0,3.26-2.64,5.9-5.9,5.9Z"/>
        </g>
        <g class="cls-5">
          <path class="cls-18" d="m1354.22,1319.09h-81.24c-3.26,0-5.9-2.64-5.9-5.9s2.64-5.91,5.9-5.91h75.33v-74.61c0-3.26,2.64-5.9,5.9-5.9s5.9,2.64,5.9,5.9v80.51c0,3.26-2.64,5.9-5.9,5.9Z"/>
          <path class="cls-18" d="m956.59,1319.45h-80.51c-3.26,0-5.9-2.64-5.9-5.9v-81.24c0-3.26,2.64-5.9,5.9-5.9s5.9,2.64,5.9,5.9v75.33h74.61c3.26,0,5.9,2.64,5.9,5.9s-2.64,5.9-5.9,5.9Z"/>
        </g>
      </g>
      <g>
        <g>
          <path class="cls-18" d="m917.49,1419.92h395.33c6.18,0,11.19,5.02,11.19,11.19v11.28c0,6.18-5.02,11.19-11.19,11.19h-395.33c-6.18,0-11.19-5.01-11.19-11.19v-11.29c0-6.18,5.02-11.19,11.19-11.19Z"/>
          <g>
            <path class="cls-24" d="m1198.15,1419.92v33.67h-280.67c-6.16,0-11.19-5.04-11.19-11.19v-11.29c0-6.16,5.04-11.19,11.19-11.19h280.67Z"/>
            <g>
              <polygon class="cls-6" points="1139.67 1419.92 1108.62 1453.59 1050.51 1453.59 1081.57 1419.92 1139.67 1419.92"/>
              <polygon class="cls-6" points="1198.15 1419.92 1198.15 1453.59 1144.3 1453.59 1175.36 1419.92 1198.15 1419.92"/>
              <polygon class="cls-6" points="1046.12 1419.92 1015.06 1453.59 956.96 1453.59 988.02 1419.92 1046.12 1419.92"/>
              <path class="cls-6" d="m952.57,1419.92l-31.06,33.67h-4.26c-6.16,0-11.19-5.04-11.19-11.19v-11.29c0-6.16,5.04-11.19,11.19-11.19h35.31Z"/>
            </g>
          </g>
        </g>
        <g>
          <path class="cls-18" d="m1072.31,1400.7l2.21-2.62c2,1.73,4,2.71,6.59,2.71,2.27,0,3.7-1.04,3.7-2.68,0-1.49-.84-2.3-4.71-3.22-4.44-1.05-6.95-2.36-6.95-6.26,0-3.58,2.98-6.06,7.13-6.06,3.04,0,5.46.92,7.58,2.62l-1.97,2.77c-1.88-1.4-3.76-2.15-5.67-2.15-2.15,0-3.4,1.1-3.4,2.54,0,1.61.95,2.33,4.95,3.28,4.42,1.07,6.71,2.66,6.71,6.17,0,3.91-3.07,6.23-7.46,6.23-3.19,0-6.21-1.1-8.71-3.34Z"/>
          <path class="cls-18" d="m1091.88,1393.3c0-5.94,4.45-10.8,10.77-10.8,3.85,0,6.17,1.34,8.17,3.25l-2.36,2.71c-1.67-1.55-3.46-2.6-5.85-2.6-4,0-6.89,3.28-6.89,7.43s2.89,7.43,6.89,7.43c2.57,0,4.21-1.04,6-2.71l2.36,2.39c-2.18,2.27-4.56,3.7-8.47,3.7-6.09,0-10.62-4.74-10.62-10.8Z"/>
          <path class="cls-18" d="m1122.22,1382.71h3.4l9.19,21.03h-3.88l-2.12-5.04h-9.87l-2.15,5.04h-3.76l9.19-21.03Zm5.25,12.74l-3.61-8.35-3.58,8.35h7.19Z"/>
          <path class="cls-18" d="m1138.39,1382.86h3.4l11.19,14.44v-14.44h3.61v20.88h-3.07l-11.51-14.86v14.86h-3.61v-20.88Z"/>
        </g>
      </g>
      <g id="girl_2" data-name="girl 2">
        <path class="cls-12" d="m1428.37,1236.08c19.26-5.62,41.01.83,54.61,15.59,33.62,36.52,8.83,64.67,25.66,90.23,10.17,15.44,18.71,42.49-12.79,58.49-14.56,7.4-57.95,46.06-66.83,46.97-90.03,9.25-91.65-82.09-61.3-108.56,42.65-37.2,3.68-86.1,60.66-102.72Z"/>
        <path class="cls-22" d="m1475.42,1377.28s82.16,39.8,97.55,39.13c15.39-.67,111.59-34.55,111.59-34.55l-2.41,16.31s-73.19,42.09-98.77,44.48c-25.19,2.35-111.33-22.61-119.64-27.88-8.32-5.27-12.48-32.17,11.69-37.5Z"/>
        <path class="cls-20" d="m1484.47,1414.83c-7.45,5.17-16.78,9.43-28.5,12.13-43.94,10.15-60.78-26.98-67.1-52.47,5.99-3.43,11.63-4.18,14.89-4.57,3.18-.37,6.52-.62,9.28-.76,4.93-3.78,12.29-19.24,13.91-43.26l2.07.55,34.63,9.48s-1.59,11.01-2.36,21.41c-.6,8.14-.7,15.92.85,17.83,2.7.59,4.32.97,4.32.97,0,0,0,.01.02.03.46.76,10.51,17.28,18.01,38.67Z"/>
        <path class="cls-22" d="m1463.64,1335.93s-1.59,11-2.36,21.41c-19.62-1.96-28.72-20.64-32.27-30.89l34.63,9.48Z"/>
        <path class="cls-20" d="m1469.5,1346.26s-46.57-2.57-44.52-31.54c2.05-28.97-2.58-48.82,27.23-48.4,29.82.42,34.81,11.88,36.48,21.72,1.67,9.84-7.02,58.15-19.19,58.23Z"/>
        <path class="cls-12" d="m1488.46,1271.82c-6.56-9.23-12.13-7.71-15.37-5.31-24.42-15.8-42.28,3.69-42.28,3.69-4.6,20.56-20.45,31.4-20.45,31.4,0,0,8.25,6.6,28,2.22,25.27-5.6,33.95-27.52,35.13-30.88,2.66,2.75,6.09,4.5,8.72,10.48,3.13,7.09,5.09,11.21,5.15,22.86,0,0,10.94-20.62,1.1-34.46Z"/>
        <path class="cls-6" d="m1375.6,1509.5c-4.21-21.5-17.92-107.38-4.21-135.02,4.92-9.93,24.25-10.82,45.45-9.95,6.6,4.26,31.73,20.35,42.06,18.34.11-.02.31-.07.58-.14,4.86-1.22,6.7-4.63,2.64-7.58,0,0,9.31.66,22.35,3.11,7.37,1.39,27.59,13.8,27.59,13.8,0,0-9.17,14.27-23.92,20.5,2.51,22.44-1.22,32.34-24.5,84.16-19.67,43.81,2.65,83.25,2.65,83.25,0,0-115.79,93.09-116.43,45.69-.48-35.68,31.12-88.7,25.74-116.18Z"/>
        <path class="cls-9" d="m1472.03,1681.21c6.3-.71,11.97-4.16,15.49-9.43.56-.84,1.16-1.74,1.79-2.7,13.18-19.95,18.31-81.05,47.95-146.15,7.22-15.85,33.14-18.7,40.21-36.61,0,0,17.4-58.07-33.3-59.78s-135.76,161.56-137.1,178.69c-1.3,16.59-33.51,87.09,64.96,75.97Z"/>
        <path class="cls-11" d="m1673.51,1680.87h-72.15s-2.7-11.81,2.04-19.85c4.19-7.11,2.59-11.17-.52-17.05,3.27,1.37,7.5,2.62,12.15,2.35,3.59-.21,7.4-1.89,10.73-3.87,3.11,3.63,16.4,19.11,20.56,22.17,4.72,3.48,25.74,2.24,27.19,16.26Z"/>
        <path class="cls-9" d="m1579.12,1443.33c4.34,32.57,21.31,135.37,51.24,185.53,9.65,16.17-24.31,25.23-24.49,25.19-4.55-1.19-12.14-8.45-15.64-11.6-24.3-21.9-73.62-83.9-73.62-133.61,0-24.24-.42-70.53,17.2-82.3,10.85-7.25,43.59,3.86,45.31,16.8Z"/>
        <path class="cls-24" d="m1378.43,1414.78s14.64,29.79,82.99,50.83c68.35,21.05,29.25-31.83,29.25-31.83l-95.55-33.39-16.69,14.39Z"/>
        <path class="cls-15" d="m1436.8,1681.28s3.66-5.48,5.98-13.63c3.88-13.61,5.26-23.52,12.71-44.72,7.83-22.26,17.11-49.64,28.71-78.13,3.58-8.79,7.38-17.69,11.43-26.58,7.22-15.85,27.09-13.66,34.15-31.57,0,0,27.58-62.1-23.12-63.82-50.69-1.71-147.02,166.14-152.55,182.39-6.06,17.79-27.83,93.1,82.69,76.05Z"/>
        <path class="cls-13" d="m1620.54,1680.87h-72.15s-2.7-11.81,2.04-19.85c4.19-7.11,2.59-11.17-.52-17.05,3.27,1.37,7.5,2.62,12.15,2.35,3.59-.21,7.4-1.89,10.73-3.87,3.11,3.63,16.4,19.11,20.56,22.17,4.71,3.48,25.74,2.24,27.19,16.26Z"/>
        <g class="cls-3">
          <path class="cls-9" d="m1455.48,1622.94c7.83-22.26,17.11-49.64,28.71-78.13-3.03-21.58-9.57-40.47-20.56-48.08,0,0-26.66,82.6-8.16,126.21Z"/>
        </g>
        <path class="cls-15" d="m1537,1441.02c4.34,32.57,10.46,137.68,40.39,187.84,9.65,16.17-24.31,25.23-24.49,25.19-4.55-1.19-12.14-8.45-15.64-11.6-24.3-21.9-73.62-83.9-73.62-133.61,0-24.24,28.45-68.59,46.07-80.35,10.85-7.25,25.56-.39,27.29,12.55Z"/>
        <g>
          <path class="cls-14" d="m1693.18,1339.89l-73.89-7.85c-2.15-.23-4.19,1.02-4.96,3.05l-26.44,69.47c-1.16,3.05,1.01,6.33,4.27,6.46l73.32,2.96c1.99.08,3.82-1.09,4.59-2.92l27.01-64.58c1.23-2.95-.72-6.25-3.9-6.58Z"/>
          <path class="cls-25" d="m1699.6,1340.56l-73.89-7.85c-2.15-.23-4.19,1.02-4.96,3.05l-26.44,69.47c-1.16,3.05,1.01,6.33,4.27,6.46l73.32,2.96c1.99.08,3.82-1.09,4.59-2.93l27.01-64.58c1.23-2.95-.72-6.25-3.9-6.58Z"/>
          <path class="cls-23" d="m1658.64,1373c.9-2.48-.38-4.49-2.86-4.49s-5.22,2.01-6.12,4.49c-.9,2.48.38,4.49,2.86,4.49s5.22-2.01,6.12-4.49Z"/>
          <path class="cls-23" d="m1697.39,1347.13c.44-1.22-.18-2.21-1.4-2.21s-2.57.99-3.01,2.21c-.44,1.22.19,2.21,1.4,2.21s2.57-.99,3.01-2.21Z"/>
        </g>
        <path class="cls-20" d="m1388.86,1374.48s102.41,37.71,117.79,36.94c9.95-.5,92.61-29.56,92.61-29.56l7.42,14.04s-80.46,51.71-102.58,51.46c-43.67-.5-117.36-27.31-125.67-32.58-8.32-5.27-13.74-34.96,10.43-40.3Z"/>
        <path class="cls-20" d="m1599.27,1381.86s7.42-11.42,14.81-11.76c7.39-.34,20.15,5.04,24.52,5.88,4.37.84,16.79,4.87,13.1,10.92-3.7,6.05-20.83,7.39-28.21,6.05-7.39-1.34-16.79,2.95-16.79,2.95l-7.42-14.04Z"/>
        <path class="cls-20" d="m1612.07,1370.46s11.75-5.39,15.11-6.4c3.36-1.01,2.69.02,1.68,3.2-1.01,3.18-7.05,6.22-7.05,7.22s-9.74-4.02-9.74-4.02Z"/>
        <path class="cls-20" d="m1691.99,1375.82s-4.69-15.45-9.84-10.59c-5.36,5.05-2.11,10.1-1.45,16.54,1.25,12.31,3.74,11.78,5.32,11.23s7.71-10.98,5.97-17.17Z"/>
        <path class="cls-20" d="m1692.27,1378.17s2.37,13.15-10.12,20.01l3.7-9.05,6.42-10.96Z"/>
        <path class="cls-18" d="m1478.21,1329.6s-4.4-1.74-16.79-.74c0,0,.66,4.83,9.79,5.31,5.17.27,7-4.57,7-4.57Z"/>
        <path class="cls-6" d="m1441.62,1393.08s-9.16,28.99-40.61,35.59c0,0-51.94-16-26.08-51.39,0,0,25.57-19,66.7,15.8Z"/>
        <path class="cls-20" d="m1692.27,1380.03s2.16-7.24,2.28-8.49c.12-1.25-.03-1.88-1.14-1s-2.81,3.2-2.31,5.39c.5,2.2,1.17,4.1,1.17,4.1Z"/>
      </g>
      <g>
        <g>
          <path class="cls-19" d="m1017.48,729.35c-2.09,2.4-2.36,5.07-1.32,7.93,0,.01,0,.03.02.04,1.91,5.29,8.23,11.19,15.57,17.08.94.76,1.77,1.45,2.5,2.08.19.17.38.34.56.5.15.13.29.27.43.39,6.84,6.31,4.27,7.75,16.56,20.56,14.02,14.59,23.67,14.85,26.42,13.52,2.32-1.13-2.4-8.87-7.63-17.57-.25-.42-.5-.84-.76-1.27-.7-1.16-1.39-2.33-2.08-3.49-6.13-10.47-4.55-15.38-3.1-30.95,1.18-12.66,19.69-70.71,19.69-70.71l-26.87-4.63s-8.09,46.23-17.01,53.35c-4.77,3.8-10.1,3.84-14.69,6.66-.32.2-.64.4-.95.6-2.6,1.73-5.26,3.51-7.35,5.91Z"/>
          <path class="cls-12" d="m1017.48,729.35c-2.09,2.4-2.36,5.07-1.32,7.93,0,.01,0,.03.02.04,2.34,5.28,8.5,11.15,15.6,17.03.93.77,1.75,1.48,2.47,2.14.19.17.38.34.56.5.15.13.29.27.43.39,6.84,6.31,4.27,7.75,16.56,20.56,14.02,14.59,23.67,14.85,26.42,13.52,2.32-1.13-2.4-8.87-7.63-17.57-2.73-1-15.41-6.15-24.99-18.42-8.44-10.77-14.07-24.62-19.82-32.63-.32.2-.64.4-.95.6-2.6,1.73-5.26,3.51-7.35,5.91Z"/>
          <path class="cls-19" d="m1234.14,712.56c1.66,8.29,13.48,6.91,26.69,3.68,13.21-3.23,10.07.61,28.87-1.47,18.8-2.08,24.49-9.09,25.07-11.89.51-2.48-8.78-3.36-18.74-4.5-1.25-.14-2.51-.3-3.77-.45-11.25-1.41-19.49-8.67-29.7-14.63-9.68-5.65-24.12-28.65-24.12-28.65l-25.78,2.04s13.53,20.55,18.76,29.48c3.08,5.25,2.91,12.2,2.53,17.57-.2,2.92-.39,5.9.2,8.82Z"/>
          <path class="cls-12" d="m1260.83,716.25c13.21-3.23,10.07.61,28.87-1.47,18.8-2.08,24.49-9.09,25.07-11.89.51-2.48-8.78-3.36-18.74-4.5l-.09.19s-11.27,7.99-26.92,8.37c-12.75.31-26.26-3.34-35.07-3.2-.2,2.92-.39,5.9.2,8.82,1.66,8.29,13.48,6.91,26.69,3.68Z"/>
          <path class="cls-24" d="m1135.34,547.72l-24.1,64.85-31.46,84.68s-8.54.82-16.72-1.53c-7.53-2.18-16.17-7.87-16.17-7.87,0,0,8.74-90.92,25.04-143.11,4.18-13.4,8.86-24.23,14.02-30.33,25.27-29.86,49.39,33.31,49.39,33.31Z"/>
          <path class="cls-6" d="m1110.84,444.73c-15.04-4.85-56.61.85-99.61,9.06-3.88.74-7.82-1.02-9.87-4.4l-6.05-9.98-97.71-7.63s-25.22,57.3-14.5,104.97c2.63,11.68,16.91,26.8,38.74,28.16,61.2,3.81,102.49-17.45,166.02-39.78,11.05-3.88,16.08,20.67,27.57,44.79,11.49,24.12,107.97,106.82,107.97,106.82,0,0,14.83.15,20.95-2.15,6.59-2.47,9-5.68,9-5.68,0,0-106.91-212.7-142.51-224.18Z"/>
          <path class="cls-12" d="m991.46,154.9c-12.52-6.57-31.56-7.46-34.66-7.88-37.02-4.98-59.31,48.83-60.62,65.13-2.42,30.05-18.31,34.63-40.69,53.45-44.86,37.73-31.71,81.58-7.18,97.87,14.72,9.77,40.66,0,40.66,0,.37.26,70.95-39.46,105.74-58.62,52.16-7.41,28.63-133.2-3.27-149.95Z"/>
          <path class="cls-20" d="m965.57,288.54c.15.1-17.12,6-28.67.88-10.87-4.8-19.1-22.68-18.93-22.69,4.94-.23,10.37-4.55,14.55-32.9l2.1.75,35.39,12.73s-2.56,11.35-4.22,22.17c-1.4,9.08-2.15,17.77-.21,19.06Z"/>
          <path class="cls-21" d="m970.01,247.32s-1.77,8.06-3.73,19.08c-20.33-3.66-28.8-20.82-31.66-31.81l35.39,12.73Z"/>
          <path class="cls-20" d="m975.28,258.59s-48.42-6.5-43.9-36.59c4.51-30.09,1.3-51.19,32.4-48.31,31.1,2.88,35.37,15.26,36.31,25.67.94,10.41-12.1,60.15-24.81,59.24Z"/>
          <path class="cls-12" d="m998.32,182.86s-30.99,26.71-52.07,28.86c-21.08,2.15-29.06-4.61-29.06-4.61,0,0,12.43-10.32,19.9-26.97,2.2-4.91,6.86-8.28,12.22-8.74,15.05-1.3,43.59-1.89,49.01,11.46Z"/>
          <path class="cls-12" d="m978.95,180.47s10.37,10.03,13.63,17.46c3.15,7.18,4.1,24.34,1.59,31.15,0,0,16.15-31.41,7.01-46.67-9.7-16.18-22.23-1.94-22.23-1.94Z"/>
          <path class="cls-15" d="m1006.34,359.86c3.71,87.39-2.16,82.57-11.12,86.83-3.09,1.47-9.84,3.57-19.4,4.21-30.05,1.99-82.88-2.96-84.89-8.51-6.93-19.22-2.04-25.19-7.82-54.61-.6-3.13-1.35-6.52-2.22-10.2-4.82-20.21-9.52-27.08,7.59-59.54,15.51-29.41,31.63-53.27,33.08-52.41,40.93,24.3,44.23,3.88,44.23,3.88,0,0,38.53,42.6,40.56,90.37Z"/>
          <path class="cls-6" d="m1111.24,612.57l-31.46,84.68s-8.54.82-16.72-1.53c-7.53-2.18-16.17-7.87-16.17-7.87,0,0,8.74-90.92,25.04-143.11l39.31,67.83Z"/>
          <path class="cls-15" d="m965.79,269.49s42.12,7.14,47.06,25.27c4.95,18.13,34.05,124.73,34.05,124.73,0,0-21.41,3.85-31.3-6.04-9.89-9.89-34.42-91.76-34.42-91.76l-15.39-52.2Z"/>
          <path class="cls-9" d="m975.81,450.89c-30.05,1.99-82.88-2.96-84.89-8.51-6.93-19.22-2.04-25.19-7.82-54.61l14.5-40.81s-2.4,45.45,11.01,57.41c13.39,11.95,54.88,23.08,61.39,33.06,3.14,4.79,5.21,9.6,5.81,13.46Z"/>
          <path class="cls-20" d="m941.38,431.78s29.65-6.6,34.43-3.97c4.78,2.63,16.48,12.21,17.94,15.55,1.46,3.33-10.65-2.53-14.59-3.59-2.55-.68-9.27,1.65-12.59,2.76-13.99,4.66-22.57,2.27-22.57,2.27l-2.62-13.01Z"/>
          <path class="cls-15" d="m921.53,265.59s-39.81,2.45-53.59,21.67c-19.4,27.06-57.88,142.37-35.83,157.75,24.84,17.32,113.04,4.53,113.04,4.53,0,0,2.94-13.72-1.15-20.36s-70.45-17.36-73.51-20.42,38.29-59.73,38.29-68.92,12.75-74.26,12.75-74.26Z"/>
          <path class="cls-20" d="m977.25,436.06s6.21,8.01,8.25,8.97c2.04.96,3.35.72,3.35.72l-4.19-7.53-7.42-2.15Z"/>
          <path class="cls-20" d="m975.81,427.81l18.06,8.77s-.77,1.26-2.99,1.16c-2.22-.1-7.83-2.15-7.83-2.15l-7.24-7.77Z"/>
        </g>
        <g>
          <g>
            <polygon class="cls-7" points="985.5 457.3 1128.37 457.3 1171.34 350.43 1028.7 350.43 985.5 457.3"/>
            <polygon class="cls-7" points="1130.04 453.14 941.38 453.14 941.38 457.3 1128.37 457.3 1130.04 453.14"/>
          </g>
          <path class="cls-23" d="m1092.3,403.87c1.08-3.76-1.1-6.8-4.85-6.8s-7.67,3.05-8.75,6.8c-1.08,3.76,1.09,6.8,4.85,6.8s7.68-3.05,8.75-6.8Z"/>
        </g>
      </g>
      <path class="cls-10" d="m2.59,1679.59h2156.75c1.43,0,2.59,1.16,2.59,2.59v1.23c0,1.43-1.16,2.59-2.59,2.59H2.59c-1.43,0-2.59-1.16-2.59-2.59v-1.23c0-1.43,1.16-2.59,2.59-2.59Z"/>
    </g>
  </g>
</svg>