<svg width="2162" height="1686" viewBox="0 0 2162 1686" fill="none" xmlns="http://www.w3.org/2000/svg">
<g clip-path="url(#clip0_1023_2812)">
<path d="M159.991 1682.79C159.991 1682.79 -132.239 1305.64 172.511 977.29C511.221 612.37 191.201 204.08 528.681 58.7202C1004.57 -146.25 1089.87 259.16 1622.8 158.66C2067.82 74.7402 2058.37 730.44 1926.85 964.44C1817.8 1158.46 2238.08 1254.62 2022.96 1681.91L159.991 1682.79Z" fill="#01AE92" fill-opacity="0.1"/>
<g opacity="0.3">
<path d="M1265.53 674.4C1265.53 674.4 1311.69 449.81 1488.53 420.13C1488.53 420.13 1522.95 414.89 1535.56 452.59C1548.17 490.29 1479.49 492.56 1437.48 509.09C1395.47 525.62 1298.37 593.35 1265.53 674.39V674.4Z" fill="#01AE92"/>
</g>
<g opacity="0.3">
<path d="M1260.29 632.77C1260.29 632.77 1236.48 448.53 1364.14 379.2C1364.14 379.2 1389.13 366.11 1408.72 391.68C1428.31 417.25 1376.29 437.08 1348.46 460.81C1320.63 484.55 1264.09 562.03 1260.28 632.77H1260.29Z" fill="#01AE92"/>
</g>
<path d="M543.151 565.38C564.811 503.76 669.451 531.22 669.451 531.22C669.451 531.22 733.391 646.55 754.151 650.71C774.911 654.87 718.741 541.43 718.741 541.43C759.631 540.49 859.441 597.88 859.441 597.88C859.441 597.88 843.441 725.76 864.591 724.68C885.741 723.6 872.981 610.73 872.981 610.73C911.411 625.41 944.711 673.95 944.711 673.95C985.061 751.98 882.771 799.76 882.771 799.76C882.771 799.76 878.181 844.2 901.931 897.3C901.931 897.3 907.441 907.19 912.571 923.69L901.861 922.9C901.201 919.96 900.441 917.12 899.571 914.37C899.571 914.35 899.571 914.33 899.551 914.32C899.541 914.28 899.521 914.24 899.511 914.2C898.901 912.49 898.021 910.06 896.911 907.09C896.911 907.09 896.911 907.09 896.911 907.08C896.911 907.08 896.911 907.08 896.911 907.07C894.111 900.42 892.251 895.53 891.101 892.01C891.101 892 891.101 891.99 891.101 891.98C882.771 871.15 870.581 843.9 861.561 837.71C861.561 837.71 862.871 836.13 864.211 832.96C863.361 834.47 862.481 836.05 861.561 837.71C840.331 875.65 748.161 875.45 697.851 861.21C647.541 846.97 670.871 834.2 700.091 812.84C729.321 791.48 786.491 801.89 804.201 793.97C821.901 786.05 797.691 775.05 763.441 775.17C729.191 775.28 709.661 808.08 654.261 809.27C598.861 810.46 564.571 703.9 564.571 703.9C601.691 718.48 671.341 702.54 674.921 689.64C678.501 676.73 577.551 670.62 562.121 665.53C546.691 660.44 521.501 626.98 543.161 565.37L543.151 565.38Z" fill="#01AE92"/>
<path d="M382.77 1533.88C344.83 1467.71 448.97 1396.17 448.97 1396.17C448.97 1396.17 599.71 1427.67 619.24 1412.49C638.77 1397.31 495.62 1360.4 495.62 1360.4C526 1323.53 652.9 1279.11 652.9 1279.11C652.9 1279.11 753.73 1390.85 768.92 1371.33C784.11 1351.81 674.59 1276.95 674.59 1276.95C716.89 1254.19 785.22 1261.8 785.22 1261.8C884.99 1285.69 849.16 1412.57 849.16 1412.57C849.16 1412.57 884.94 1450.54 950 1470.08C950 1470.08 962.95 1472.75 981.44 1480.81L972.57 1489.68C969.47 1488.02 966.37 1486.52 963.28 1485.2C963.26 1485.18 963.25 1485.18 963.22 1485.18C963.18 1485.16 963.13 1485.14 963.09 1485.12C961.11 1484.36 958.29 1483.28 954.82 1481.99C954.82 1481.99 954.82 1481.99 954.81 1481.99C954.81 1481.99 954.8 1481.99 954.79 1481.99C946.78 1479.39 941.03 1477.3 937.04 1475.63C937.03 1475.63 937.02 1475.62 937 1475.61C912.23 1467.07 878.84 1457.06 866.48 1460.31C866.48 1460.31 866.08 1457.95 864.31 1454.34C865 1456.24 865.72 1458.23 866.48 1460.31C883.82 1508.03 813.3 1589.35 762.32 1622.96C711.34 1656.57 717.85 1626.2 721.28 1584.06C724.71 1541.92 777.54 1499.32 784.05 1477.64C790.56 1455.95 762.36 1468.96 736.32 1499.32C710.28 1529.68 724.37 1571.98 683.14 1621.86C641.91 1671.74 521.55 1620.73 521.55 1620.73C562.77 1599.05 601.83 1525.32 593.16 1512.3C584.49 1499.28 502.04 1583.85 485.77 1593.61C469.5 1603.37 420.7 1600.1 382.76 1533.93L382.77 1533.88Z" fill="#01AE92"/>
<g opacity="0.5">
<path d="M1835.63 651.61C1828.27 583.03 1714.06 585.95 1714.06 585.95C1714.06 585.95 1620.44 689.03 1598.09 688.29C1575.74 687.55 1660.92 584.53 1660.92 584.53C1619.11 573.67 1502.63 608.53 1502.63 608.53C1502.63 608.53 1488.15 743.85 1466.67 737.63C1445.19 731.41 1485.61 618.47 1485.61 618.47C1442.56 624.27 1396.59 666.11 1396.59 666.11C1336.24 736.56 1429.83 810.42 1429.83 810.42C1429.83 810.42 1423.8 857.21 1386.55 906.05C1386.55 906.05 1378.49 914.88 1369.23 930.6L1380.43 932.38C1381.82 929.52 1383.29 926.78 1384.85 924.17C1384.85 924.15 1384.86 924.13 1384.88 924.12C1384.9 924.08 1384.93 924.04 1384.95 924.01C1385.99 922.4 1387.49 920.11 1389.34 917.33C1389.34 917.33 1389.34 917.33 1389.34 917.32C1389.34 917.32 1389.34 917.32 1389.34 917.31C1393.83 911.15 1396.93 906.57 1398.96 903.23C1398.96 903.22 1398.97 903.21 1398.98 903.2C1412.58 883.8 1431.71 858.74 1442.47 854.56C1442.47 854.56 1441.51 852.62 1440.89 849.04C1441.39 850.8 1441.92 852.63 1442.47 854.56C1455.12 898.7 1549.91 920.78 1605.07 918.32C1660.23 915.85 1639.34 897.08 1614.46 868.06C1589.58 839.04 1528.29 835.9 1512.01 823.49C1495.73 811.07 1523.28 805.62 1558.45 814.02C1593.63 822.42 1605.77 860.86 1662.43 875.48C1719.09 890.1 1780.11 788.86 1780.11 788.86C1738.43 794.88 1670.69 761.64 1670.12 747.51C1669.56 733.38 1774.81 751.51 1791.9 750.01C1808.99 748.51 1842.98 720.21 1835.62 651.64L1835.63 651.61Z" fill="#01AE92"/>
</g>
<g opacity="0.2">
<path d="M1895.62 1485.81C1971.28 1423.72 1878.96 1290.45 1878.96 1290.45C1878.96 1290.45 1683.78 1259.55 1667.28 1232.45C1650.77 1205.35 1839.31 1226.28 1839.31 1226.28C1819.67 1168.22 1687.68 1057.1 1687.68 1057.1C1687.68 1057.1 1515.82 1145.2 1506.49 1114.86C1497.16 1084.53 1662.65 1044.62 1662.65 1044.62C1622.27 998.04 1536.85 976.04 1536.85 976.04C1406.28 959.24 1391.45 1127.77 1391.45 1127.77C1391.45 1127.77 1331.23 1157.02 1244.28 1150.81C1244.28 1150.81 1227.53 1148.12 1201.67 1149.35L1208.27 1164.03C1212.75 1163.46 1217.15 1163.07 1221.46 1162.89C1221.49 1162.88 1221.51 1162.88 1221.54 1162.89C1221.6 1162.89 1221.66 1162.89 1221.73 1162.89C1224.45 1162.88 1228.33 1162.87 1233.07 1162.9C1233.07 1162.9 1233.08 1162.9 1233.09 1162.9C1233.09 1162.9 1233.1 1162.9 1233.11 1162.9C1243.91 1163.44 1251.76 1163.55 1257.3 1163.36C1257.32 1163.36 1257.33 1163.36 1257.35 1163.36C1290.96 1164.4 1335.57 1167.61 1348.91 1177.13C1348.91 1177.13 1350.46 1174.48 1354.23 1170.96C1352.53 1172.93 1350.77 1174.98 1348.91 1177.13C1306.37 1226.48 1353.91 1356.16 1399.76 1419.7C1445.61 1483.24 1451.63 1443.85 1466.71 1391.74C1481.8 1339.63 1437.83 1264.46 1439.9 1235.47C1441.97 1206.49 1469.87 1234.94 1487.28 1283.22C1504.68 1331.5 1468.51 1375.83 1495.24 1454.44C1521.97 1533.06 1689.6 1526.71 1689.6 1526.71C1650.03 1481.92 1636.77 1375.67 1653.1 1364.01C1669.43 1352.35 1729.81 1491.36 1744.88 1510.48C1759.95 1529.6 1819.99 1547.91 1895.64 1485.82L1895.62 1485.81Z" fill="#01AE92"/>
</g>
<path d="M732.589 1019.97C728.999 1029.63 722.769 1040.84 716.239 1043.62C708.829 1046.78 705.739 1051.24 705.739 1051.24L699.759 1047.77L692.619 1043.62C692.619 1043.62 692.789 1042.83 693.139 1041.54C693.479 1040.25 694.019 1038.46 694.739 1036.48C694.739 1036.48 696.929 1033.66 695.589 1030.12C694.249 1026.59 694.519 1021.12 696.809 1017.79C699.099 1014.46 701.309 1006.26 702.689 1006.5C706.029 1007.07 701.049 1018.35 702.479 1020.44C703.769 1022.33 705.389 1021.68 705.689 1021.54C705.709 1021.53 705.729 1021.52 705.749 1021.51C715.119 1017.39 726.489 995.17 731.519 998.17C733.399 999.29 734.129 1015.86 732.599 1019.97H732.589Z" fill="#FFB27D"/>
<path d="M700.17 1033.42L711.91 1041.67C712.74 1042.25 713.89 1042.05 714.48 1041.22L744.56 998.43C745.14 997.6 744.94 996.45 744.11 995.86L732.37 987.61C731.54 987.03 730.39 987.23 729.8 988.06L699.72 1030.85C699.14 1031.68 699.34 1032.83 700.17 1033.42Z" fill="#2B478B"/>
<path d="M710.92 1040.97L717.8 1045.81C718.43 1046.25 719.31 1046.1 719.75 1045.47L750.33 1001.96C750.77 1001.33 750.62 1000.45 749.99 1000.01L743.11 995.17C742.48 994.73 741.6 994.88 741.16 995.51L710.58 1039.03C710.14 1039.66 710.29 1040.54 710.92 1040.98V1040.97Z" fill="#233862"/>
<path d="M531.74 972.01C531.74 972.01 591.48 1076.21 613.15 1095.38L692.62 1036.13C692.62 1036.13 704.15 1039.67 709.2 1051.24C709.2 1051.24 660.94 1149.56 613.43 1153.73C565.92 1157.9 499.23 1035.88 499.23 1035.88L531.74 972V972.01Z" fill="#01AE92"/>
<path d="M396.55 1680.71H362.03C357.68 1678.35 353.81 1672.95 352.59 1664.89C350.9 1653.77 338.44 1647.71 335.74 1638.61C333.05 1629.52 346.86 1616.72 346.86 1616.72L349.17 1613.74L351.57 1610.65L374.48 1616.04C374.48 1616.04 375.05 1621.5 375.39 1628.45C375.64 1633.46 375.77 1639.26 375.49 1644.34C374.82 1656.47 378.88 1669.53 389.66 1671.89C397.63 1673.63 397.27 1678.36 396.54 1680.71H396.55Z" fill="#233862"/>
<path d="M596.879 1680.71H517.939C514.139 1676.08 515.539 1658.98 516.119 1653.4C516.239 1652.28 516.319 1651.62 516.319 1651.62C516.319 1651.62 543.279 1630.06 546.979 1646.57C547.089 1647.09 547.229 1647.59 547.379 1648.09C552.039 1663.53 572.969 1670.55 585.049 1672.5C592.899 1673.77 595.809 1677.86 596.879 1680.71Z" fill="#233862"/>
<path d="M581.83 1240.09C581.83 1240.09 577.74 1291.16 572.93 1352.54C566.39 1435.93 558.53 1538.36 557.75 1557.76C556.41 1591.45 551.01 1645.35 551.01 1645.35C551.01 1645.35 538.22 1658.15 512.61 1652.76C512.61 1652.76 489.79 1575.82 483.27 1494.41C483.17 1493.08 483.07 1491.73 482.97 1490.39C476.91 1407.52 467.48 1233.01 467.48 1233.01L581.84 1240.08L581.83 1240.09Z" fill="#F99746"/>
<path d="M581.83 1240.09C581.83 1240.09 577.74 1291.16 572.93 1352.54L483.27 1494.41C483.17 1493.08 483.07 1491.73 482.97 1490.39C476.91 1407.52 467.48 1233.01 467.48 1233.01L581.84 1240.08L581.83 1240.09Z" fill="#ED7D2B"/>
<path d="M563.139 1246.15C563.139 1246.15 489.359 1431.1 440.849 1518.01C392.339 1604.93 377.179 1629.18 377.179 1629.18C377.179 1629.18 349.389 1618.06 346.859 1610.48C346.859 1610.48 365.409 1442.69 397.899 1401.78C416.259 1378.67 437.819 1309.31 438.829 1285.05C439.839 1260.8 445.399 1212.79 445.399 1212.79L563.139 1246.14V1246.15Z" fill="#F99746"/>
<path d="M544.78 976.54C515.95 985.64 466.07 961.09 466.07 961.09C466.07 961.09 492.65 941.14 491.26 899.66L513.55 917.62L528.69 929.82C528.69 929.82 528.63 937.01 526.97 949.62C526.53 952.94 530.27 960.25 533.52 964.36C542.26 975.45 544.78 976.54 544.78 976.54Z" fill="#FFB27D"/>
<path d="M528.68 929.819C528.68 929.819 528.62 937.009 526.96 949.619C510.18 946.739 491.15 919.619 491.15 919.619C499.69 917.149 507.17 916.709 513.54 917.619L528.68 929.819Z" fill="#ED975D"/>
<path d="M537.5 929.14C537.5 929.14 489.88 937.05 485.41 907.32C480.94 877.59 471.78 858.59 502 852.28C532.22 845.97 539.84 856.43 543.75 865.99C547.66 875.55 549.78 926.32 537.5 929.15V929.14Z" fill="#FFB27D"/>
<path d="M585.02 1244.34C584.15 1245.06 583.14 1245.49 581.99 1245.49C571.16 1245.34 539.59 1251.36 512.88 1248.61C490.36 1246.45 470.43 1239.78 449.02 1230.18C446.18 1228.91 439.64 1225.41 439.78 1222.24C439.88 1218.76 440.22 1213.72 440.66 1207.36C442.18 1185.27 444.82 1147.26 442.24 1103.42C441.78 1095.26 441.53 1087.16 441.5 1079.19C441.28 1019.77 453.06 967.51 476.74 949.82C478.76 948.37 491.18 954.44 502.58 960.07C513.12 965.27 523.66 965.84 533.62 963.83L543.58 972.63C555.71 983.89 568.99 999.2 574.76 1022.44C579.67 1042.22 582.56 1077.88 584.14 1114.84C584.86 1131.59 585.44 1148.48 585.59 1164.51V1165.08C585.73 1166.67 585.73 1168.41 585.73 1169.99C586.31 1211.13 585.73 1243.76 585.01 1244.34H585.02Z" fill="#01AE92"/>
<path d="M440.66 1207.37C442.18 1185.28 444.82 1147.27 442.24 1103.43C441.78 1095.27 441.53 1087.17 441.5 1079.2C451.36 1055.27 459.42 1037.92 459.42 1037.92H484.28C484.28 1037.92 502.51 1162.41 440.65 1207.37H440.66Z" fill="#01AE92"/>
<path d="M313.319 1348.46L419.339 1363.57C433.139 1365.54 446.039 1355.86 447.999 1342.06L454.549 1296.11C456.519 1282.31 446.839 1269.41 433.039 1267.45L327.019 1252.34C313.219 1250.37 300.319 1260.05 298.359 1273.85L291.809 1319.8C289.839 1333.6 299.519 1346.5 313.319 1348.46Z" fill="#233862"/>
<path d="M439.02 1281.14C436.04 1273.68 429.61 1267.79 421.46 1265.79C421.46 1265.79 421.45 1265.79 421.44 1265.79C420.64 1265.6 419.83 1265.43 418.99 1265.32L397.88 1262.32L399.29 1252.4C399.61 1250.19 399.04 1247.98 397.69 1246.18C396.34 1244.39 394.37 1243.22 392.16 1242.91L386.65 1242.12L364.48 1238.96L360.48 1238.39C355.9 1237.74 351.64 1240.93 350.99 1245.51L349.58 1255.43L313.14 1250.24C299.29 1248.27 286.35 1257.98 284.37 1271.83L277.75 1318.31C275.78 1332.16 285.49 1345.1 299.34 1347.08L405.17 1362.17C407.04 1362.44 408.89 1362.49 410.69 1362.34H410.71C413.61 1362.12 416.39 1361.4 418.97 1360.25C426.75 1356.82 432.66 1349.56 433.94 1340.56L440.56 1294.09C441.2 1289.56 440.6 1285.13 439.01 1281.15L439.02 1281.14ZM356.2 1246.25C356.4 1244.86 357.49 1243.81 358.8 1243.6C359.11 1243.55 359.42 1243.54 359.74 1243.59L364.45 1244.26L381.9 1246.75L391.41 1248.11C393.12 1248.35 394.31 1249.95 394.07 1251.65L392.66 1261.57L354.79 1256.17L356.2 1246.26V1246.25Z" fill="#2B478B"/>
<path d="M393.939 1211.65C393.939 1211.65 388.369 1219.07 388.149 1222.03C386.649 1242.12 395.829 1244.89 372.069 1256.05C372.069 1256.05 361.929 1259.92 361.749 1252.04C361.579 1244.17 368.789 1244.04 367.469 1233.01C365.949 1220.29 366.099 1220.17 374.449 1213.53L379.979 1204.39L393.939 1211.64V1211.65Z" fill="#FFB27D"/>
<path d="M379.78 1217.33C388.73 1219.08 398.44 1218.37 398.44 1218.37C398.44 1218.37 425.02 1136.27 428.44 1128.77C431.86 1121.27 507.38 1032.51 507.38 1032.51L475.92 953.78C475.92 953.78 394.24 1090.22 385.94 1109.39C372.23 1141.07 367.48 1212.1 367.48 1212.1C367.48 1212.1 372.76 1215.96 379.79 1217.33H379.78Z" fill="#01AE92"/>
<path d="M485.371 904.46C485.371 904.46 490.261 903.64 489.471 896.91C488.681 890.18 488.691 881.38 494.161 883.02C499.631 884.66 499.901 889.04 502.151 886.48C504.401 883.92 504.441 873.14 520.721 872.39C537.001 871.64 543.621 877.31 551.191 873.98C558.761 870.65 559.161 859.19 559.161 859.19C559.161 859.19 557.011 863.28 553.751 864.58C553.751 864.58 566.381 847.3 551.761 835.45C537.131 823.6 522.221 831.36 513.751 831.87C495.101 833 483.051 834.12 476.961 846.37C470.871 858.62 473.381 892.65 485.351 904.45L485.371 904.46Z" fill="#2B478B"/>
<path d="M385.16 1220.48C385.16 1220.48 390.52 1226.07 390.86 1228.39C391.95 1235.85 394.44 1239.08 393.19 1239.89C390.59 1241.58 387.16 1236.05 385.52 1231.09C383.88 1226.13 385.17 1220.47 385.17 1220.47L385.16 1220.48Z" fill="#FFB27D"/>
<path d="M1373.83 564.76H856.47C823.957 564.76 797.6 591.117 797.6 623.63V1613.33C797.6 1645.84 823.957 1672.2 856.47 1672.2H1373.83C1406.34 1672.2 1432.7 1645.84 1432.7 1613.33V623.63C1432.7 591.117 1406.34 564.76 1373.83 564.76Z" fill="#00E599"/>
<path d="M1373.83 1679.59H856.459C819.929 1679.59 790.199 1649.87 790.199 1613.33V623.63C790.199 587.1 819.919 557.37 856.459 557.37H1373.83C1410.36 557.37 1440.08 587.09 1440.08 623.63V1613.33C1440.08 1649.86 1410.36 1679.59 1373.83 1679.59ZM856.469 572.15C828.089 572.15 804.989 595.24 804.989 623.63V1613.33C804.989 1641.72 828.079 1664.81 856.469 1664.81H1373.84C1402.22 1664.81 1425.32 1641.72 1425.32 1613.33V623.63C1425.32 595.25 1402.23 572.15 1373.84 572.15H856.469Z" fill="#2B478B"/>
<g opacity="0.9">
<path d="M1324.01 856.17H906.289V1273.89H1324.01V856.17Z" fill="white"/>
</g>
<path d="M964.758 1230.05H948.158V1246.65H964.758V1230.05Z" fill="#2B478B"/>
<path d="M981.36 1230.05H964.76V1246.65H981.36V1230.05Z" fill="#2B478B"/>
<path d="M997.959 1230.05H981.359V1246.65H997.959V1230.05Z" fill="#2B478B"/>
<path d="M1014.56 1230.05H997.959V1246.65H1014.56V1230.05Z" fill="#2B478B"/>
<path d="M1031.17 1230.05H1014.57V1246.65H1031.17V1230.05Z" fill="#2B478B"/>
<path d="M1064.37 1230.05H1047.77V1246.65H1064.37V1230.05Z" fill="#2B478B"/>
<path d="M1080.97 1230.05H1064.37V1246.65H1080.97V1230.05Z" fill="#2B478B"/>
<path d="M1130.77 1230.05H1114.17V1246.65H1130.77V1230.05Z" fill="#2B478B"/>
<path d="M1164.95 1230.05H1147.37V1246.65H1164.95V1230.05Z" fill="#2B478B"/>
<path d="M1181.55 1230.05H1164.95V1246.65H1181.55V1230.05Z" fill="#2B478B"/>
<path d="M1214.75 1230.05H1198.15V1246.65H1214.75V1230.05Z" fill="#2B478B"/>
<path d="M1231.35 1230.05H1214.75V1246.65H1231.35V1230.05Z" fill="#2B478B"/>
<path d="M1247.96 1230.05H1231.36V1246.65H1247.96V1230.05Z" fill="#2B478B"/>
<path d="M1264.56 1230.05H1247.96V1246.65H1264.56V1230.05Z" fill="#2B478B"/>
<path d="M1281.16 1230.05H1264.56V1246.65H1281.16V1230.05Z" fill="#2B478B"/>
<path d="M1298.74 1230.05H1281.16V1246.65H1298.74V1230.05Z" fill="#2B478B"/>
<path d="M948.159 1230.05H931.559V1246.65H948.159V1230.05Z" fill="#2B478B"/>
<path d="M1031.17 1213.45H1014.57V1230.05H1031.17V1213.45Z" fill="#2B478B"/>
<path d="M1080.97 1213.45H1064.37V1230.05H1080.97V1213.45Z" fill="#2B478B"/>
<path d="M1114.17 1213.45H1097.57V1230.05H1114.17V1213.45Z" fill="#2B478B"/>
<path d="M1130.77 1213.45H1114.17V1230.05H1130.77V1213.45Z" fill="#2B478B"/>
<path d="M1147.37 1213.45H1130.77V1230.05H1147.37V1213.45Z" fill="#2B478B"/>
<path d="M1164.95 1213.45H1147.37V1230.05H1164.95V1213.45Z" fill="#2B478B"/>
<path d="M1214.75 1213.45H1198.15V1230.05H1214.75V1213.45Z" fill="#2B478B"/>
<path d="M1298.74 1213.45H1281.16V1230.05H1298.74V1213.45Z" fill="#2B478B"/>
<path d="M948.159 1213.45H931.559V1230.05H948.159V1213.45Z" fill="#2B478B"/>
<path d="M981.36 1196.85H964.76V1213.45H981.36V1196.85Z" fill="#2B478B"/>
<path d="M997.959 1196.85H981.359V1213.45H997.959V1196.85Z" fill="#2B478B"/>
<path d="M1031.17 1196.85H1014.57V1213.45H1031.17V1196.85Z" fill="#2B478B"/>
<path d="M1064.37 1196.85H1047.77V1213.45H1064.37V1196.85Z" fill="#2B478B"/>
<path d="M1080.97 1196.85H1064.37V1213.45H1080.97V1196.85Z" fill="#2B478B"/>
<path d="M1097.57 1196.85H1080.97V1213.45H1097.57V1196.85Z" fill="#2B478B"/>
<path d="M1130.77 1196.85H1114.17V1213.45H1130.77V1196.85Z" fill="#2B478B"/>
<path d="M1147.37 1196.85H1130.77V1213.45H1147.37V1196.85Z" fill="#2B478B"/>
<path d="M1164.95 1196.85H1147.37V1213.45H1164.95V1196.85Z" fill="#2B478B"/>
<path d="M1181.55 1196.85H1164.95V1213.45H1181.55V1196.85Z" fill="#2B478B"/>
<path d="M1214.75 1196.85H1198.15V1213.45H1214.75V1196.85Z" fill="#2B478B"/>
<path d="M1247.96 1196.85H1231.36V1213.45H1247.96V1196.85Z" fill="#2B478B"/>
<path d="M1264.56 1196.85H1247.96V1213.45H1264.56V1196.85Z" fill="#2B478B"/>
<path d="M1298.74 1196.85H1281.16V1213.45H1298.74V1196.85Z" fill="#2B478B"/>
<path d="M948.159 1196.85H931.559V1213.45H948.159V1196.85Z" fill="#2B478B"/>
<path d="M981.36 1180.25H964.76V1196.85H981.36V1180.25Z" fill="#2B478B"/>
<path d="M997.959 1180.25H981.359V1196.85H997.959V1180.25Z" fill="#2B478B"/>
<path d="M1031.17 1180.25H1014.57V1196.85H1031.17V1180.25Z" fill="#2B478B"/>
<path d="M1064.37 1180.25H1047.77V1196.85H1064.37V1180.25Z" fill="#2B478B"/>
<path d="M1097.57 1180.25H1080.97V1196.85H1097.57V1180.25Z" fill="#2B478B"/>
<path d="M1130.77 1180.25H1114.17V1196.85H1130.77V1180.25Z" fill="#2B478B"/>
<path d="M1214.75 1180.25H1198.15V1196.85H1214.75V1180.25Z" fill="#2B478B"/>
<path d="M1247.96 1180.25H1231.36V1196.85H1247.96V1180.25Z" fill="#2B478B"/>
<path d="M1264.56 1180.25H1247.96V1196.85H1264.56V1180.25Z" fill="#2B478B"/>
<path d="M1298.74 1180.25H1281.16V1196.85H1298.74V1180.25Z" fill="#2B478B"/>
<path d="M948.159 1180.25H931.559V1196.85H948.159V1180.25Z" fill="#2B478B"/>
<path d="M1031.17 1163.65H1014.57V1180.25H1031.17V1163.65Z" fill="#2B478B"/>
<path d="M1064.37 1163.65H1047.77V1180.25H1064.37V1163.65Z" fill="#2B478B"/>
<path d="M1080.97 1163.65H1064.37V1180.25H1080.97V1163.65Z" fill="#2B478B"/>
<path d="M1097.57 1163.65H1080.97V1180.25H1097.57V1163.65Z" fill="#2B478B"/>
<path d="M1130.77 1163.65H1114.17V1180.25H1130.77V1163.65Z" fill="#2B478B"/>
<path d="M1147.37 1163.65H1130.77V1180.25H1147.37V1163.65Z" fill="#2B478B"/>
<path d="M1181.55 1163.65H1164.95V1180.25H1181.55V1163.65Z" fill="#2B478B"/>
<path d="M1214.75 1163.65H1198.15V1180.25H1214.75V1163.65Z" fill="#2B478B"/>
<path d="M1298.74 1163.65H1281.16V1180.25H1298.74V1163.65Z" fill="#2B478B"/>
<path d="M948.159 1163.65H931.559V1180.25H948.159V1163.65Z" fill="#2B478B"/>
<path d="M964.758 1147.05H948.158V1163.65H964.758V1147.05Z" fill="#2B478B"/>
<path d="M981.36 1147.05H964.76V1163.65H981.36V1147.05Z" fill="#2B478B"/>
<path d="M997.959 1147.05H981.359V1163.65H997.959V1147.05Z" fill="#2B478B"/>
<path d="M1014.56 1147.05H997.959V1163.65H1014.56V1147.05Z" fill="#2B478B"/>
<path d="M1031.17 1147.05H1014.57V1163.65H1031.17V1147.05Z" fill="#2B478B"/>
<path d="M1064.37 1147.05H1047.77V1163.65H1064.37V1147.05Z" fill="#2B478B"/>
<path d="M1097.57 1147.05H1080.97V1163.65H1097.57V1147.05Z" fill="#2B478B"/>
<path d="M1114.17 1147.05H1097.57V1163.65H1114.17V1147.05Z" fill="#2B478B"/>
<path d="M1147.37 1147.05H1130.77V1163.65H1147.37V1147.05Z" fill="#2B478B"/>
<path d="M1214.75 1147.05H1198.15V1163.65H1214.75V1147.05Z" fill="#2B478B"/>
<path d="M1231.35 1147.05H1214.75V1163.65H1231.35V1147.05Z" fill="#2B478B"/>
<path d="M1247.96 1147.05H1231.36V1163.65H1247.96V1147.05Z" fill="#2B478B"/>
<path d="M1264.56 1147.05H1247.96V1163.65H1264.56V1147.05Z" fill="#2B478B"/>
<path d="M1281.16 1147.05H1264.56V1163.65H1281.16V1147.05Z" fill="#2B478B"/>
<path d="M1298.74 1147.05H1281.16V1163.65H1298.74V1147.05Z" fill="#2B478B"/>
<path d="M948.159 1147.05H931.559V1163.65H948.159V1147.05Z" fill="#2B478B"/>
<path d="M1114.17 1130.45H1097.57V1147.05H1114.17V1130.45Z" fill="#2B478B"/>
<path d="M1130.77 1130.45H1114.17V1147.05H1130.77V1130.45Z" fill="#2B478B"/>
<path d="M1147.37 1130.45H1130.77V1147.05H1147.37V1130.45Z" fill="#2B478B"/>
<path d="M1181.55 1130.45H1164.95V1147.05H1181.55V1130.45Z" fill="#2B478B"/>
<path d="M964.758 1113.85H948.158V1130.45H964.758V1113.85Z" fill="#2B478B"/>
<path d="M981.36 1113.85H964.76V1130.45H981.36V1113.85Z" fill="#2B478B"/>
<path d="M997.959 1113.85H981.359V1130.45H997.959V1113.85Z" fill="#2B478B"/>
<path d="M1014.56 1113.85H997.959V1130.45H1014.56V1113.85Z" fill="#2B478B"/>
<path d="M1064.37 1113.85H1047.77V1130.45H1064.37V1113.85Z" fill="#2B478B"/>
<path d="M1080.97 1113.85H1064.37V1130.45H1080.97V1113.85Z" fill="#2B478B"/>
<path d="M1097.57 1113.85H1080.97V1130.45H1097.57V1113.85Z" fill="#2B478B"/>
<path d="M1130.77 1113.85H1114.17V1130.45H1130.77V1113.85Z" fill="#2B478B"/>
<path d="M1147.37 1113.85H1130.77V1130.45H1147.37V1113.85Z" fill="#2B478B"/>
<path d="M1164.95 1113.85H1147.37V1130.45H1164.95V1113.85Z" fill="#2B478B"/>
<path d="M1181.55 1113.85H1164.95V1130.45H1181.55V1113.85Z" fill="#2B478B"/>
<path d="M1198.15 1113.85H1181.55V1130.45H1198.15V1113.85Z" fill="#2B478B"/>
<path d="M1214.75 1113.85H1198.15V1130.45H1214.75V1113.85Z" fill="#2B478B"/>
<path d="M1231.35 1113.85H1214.75V1130.45H1231.35V1113.85Z" fill="#2B478B"/>
<path d="M1247.96 1113.85H1231.36V1130.45H1247.96V1113.85Z" fill="#2B478B"/>
<path d="M1281.16 1113.85H1264.56V1130.45H1281.16V1113.85Z" fill="#2B478B"/>
<path d="M1298.74 1113.85H1281.16V1130.45H1298.74V1113.85Z" fill="#2B478B"/>
<path d="M981.36 1097.25H964.76V1113.85H981.36V1097.25Z" fill="#2B478B"/>
<path d="M997.959 1097.25H981.359V1113.85H997.959V1097.25Z" fill="#2B478B"/>
<path d="M1047.77 1097.25H1031.17V1113.85H1047.77V1097.25Z" fill="#2B478B"/>
<path d="M1064.37 1097.25H1047.77V1113.85H1064.37V1097.25Z" fill="#2B478B"/>
<path d="M1097.57 1097.25H1080.97V1113.85H1097.57V1097.25Z" fill="#2B478B"/>
<path d="M1147.37 1097.25H1130.77V1113.85H1147.37V1097.25Z" fill="#2B478B"/>
<path d="M1181.55 1097.25H1164.95V1113.85H1181.55V1097.25Z" fill="#2B478B"/>
<path d="M1198.15 1097.25H1181.55V1113.85H1198.15V1097.25Z" fill="#2B478B"/>
<path d="M1231.35 1097.25H1214.75V1113.85H1231.35V1097.25Z" fill="#2B478B"/>
<path d="M1247.96 1097.25H1231.36V1113.85H1247.96V1097.25Z" fill="#2B478B"/>
<path d="M964.758 1080.65H948.158V1097.25H964.758V1080.65Z" fill="#2B478B"/>
<path d="M997.959 1080.65H981.359V1097.25H997.959V1080.65Z" fill="#2B478B"/>
<path d="M1014.56 1080.65H997.959V1097.25H1014.56V1080.65Z" fill="#2B478B"/>
<path d="M1031.17 1080.65H1014.57V1097.25H1031.17V1080.65Z" fill="#2B478B"/>
<path d="M1047.77 1080.65H1031.17V1097.25H1047.77V1080.65Z" fill="#2B478B"/>
<path d="M1080.97 1080.65H1064.37V1097.25H1080.97V1080.65Z" fill="#2B478B"/>
<path d="M1097.57 1080.65H1080.97V1097.25H1097.57V1080.65Z" fill="#2B478B"/>
<path d="M1114.17 1080.65H1097.57V1097.25H1114.17V1080.65Z" fill="#2B478B"/>
<path d="M1130.77 1080.65H1114.17V1097.25H1130.77V1080.65Z" fill="#2B478B"/>
<path d="M1147.37 1080.65H1130.77V1097.25H1147.37V1080.65Z" fill="#2B478B"/>
<path d="M1164.95 1080.65H1147.37V1097.25H1164.95V1080.65Z" fill="#2B478B"/>
<path d="M1247.96 1080.65H1231.36V1097.25H1247.96V1080.65Z" fill="#2B478B"/>
<path d="M1264.56 1080.65H1247.96V1097.25H1264.56V1080.65Z" fill="#2B478B"/>
<path d="M1298.74 1080.65H1281.16V1097.25H1298.74V1080.65Z" fill="#2B478B"/>
<path d="M948.159 1080.65H931.559V1097.25H948.159V1080.65Z" fill="#2B478B"/>
<path d="M964.758 1064.05H948.158V1080.65H964.758V1064.05Z" fill="#2B478B"/>
<path d="M981.36 1064.05H964.76V1080.65H981.36V1064.05Z" fill="#2B478B"/>
<path d="M997.959 1064.05H981.359V1080.65H997.959V1064.05Z" fill="#2B478B"/>
<path d="M1064.37 1064.05H1047.77V1080.65H1064.37V1064.05Z" fill="#2B478B"/>
<path d="M1080.97 1064.05H1064.37V1080.65H1080.97V1064.05Z" fill="#2B478B"/>
<path d="M1147.37 1064.05H1130.77V1080.65H1147.37V1064.05Z" fill="#2B478B"/>
<path d="M1198.15 1064.05H1181.55V1080.65H1198.15V1064.05Z" fill="#2B478B"/>
<path d="M1214.75 1064.05H1198.15V1080.65H1214.75V1064.05Z" fill="#2B478B"/>
<path d="M1247.96 1064.05H1231.36V1080.65H1247.96V1064.05Z" fill="#2B478B"/>
<path d="M1264.56 1064.05H1247.96V1080.65H1264.56V1064.05Z" fill="#2B478B"/>
<path d="M1281.16 1064.05H1264.56V1080.65H1281.16V1064.05Z" fill="#2B478B"/>
<path d="M1298.74 1064.05H1281.16V1080.65H1298.74V1064.05Z" fill="#2B478B"/>
<path d="M948.159 1064.05H931.559V1080.65H948.159V1064.05Z" fill="#2B478B"/>
<path d="M997.959 1047.45H981.359V1064.05H997.959V1047.45Z" fill="#2B478B"/>
<path d="M1014.56 1047.45H997.959V1064.05H1014.56V1047.45Z" fill="#2B478B"/>
<path d="M1031.17 1047.45H1014.57V1064.05H1031.17V1047.45Z" fill="#2B478B"/>
<path d="M1047.77 1047.45H1031.17V1064.05H1047.77V1047.45Z" fill="#2B478B"/>
<path d="M1064.37 1047.45H1047.77V1064.05H1064.37V1047.45Z" fill="#2B478B"/>
<path d="M1080.97 1047.45H1064.37V1064.05H1080.97V1047.45Z" fill="#2B478B"/>
<path d="M1130.77 1047.45H1114.17V1064.05H1130.77V1047.45Z" fill="#2B478B"/>
<path d="M1181.55 1047.45H1164.95V1064.05H1181.55V1047.45Z" fill="#2B478B"/>
<path d="M1198.15 1047.45H1181.55V1064.05H1198.15V1047.45Z" fill="#2B478B"/>
<path d="M1264.56 1047.45H1247.96V1064.05H1264.56V1047.45Z" fill="#2B478B"/>
<path d="M948.159 1047.45H931.559V1064.05H948.159V1047.45Z" fill="#2B478B"/>
<path d="M964.758 1030.85H948.158V1047.45H964.758V1030.85Z" fill="#2B478B"/>
<path d="M981.36 1030.85H964.76V1047.45H981.36V1030.85Z" fill="#2B478B"/>
<path d="M997.959 1030.85H981.359V1047.45H997.959V1030.85Z" fill="#2B478B"/>
<path d="M1014.56 1030.85H997.959V1047.45H1014.56V1030.85Z" fill="#2B478B"/>
<path d="M1047.77 1030.85H1031.17V1047.45H1047.77V1030.85Z" fill="#2B478B"/>
<path d="M1080.97 1030.85H1064.37V1047.45H1080.97V1030.85Z" fill="#2B478B"/>
<path d="M1097.57 1030.85H1080.97V1047.45H1097.57V1030.85Z" fill="#2B478B"/>
<path d="M1130.77 1030.85H1114.17V1047.45H1130.77V1030.85Z" fill="#2B478B"/>
<path d="M1147.37 1030.85H1130.77V1047.45H1147.37V1030.85Z" fill="#2B478B"/>
<path d="M1164.95 1030.85H1147.37V1047.45H1164.95V1030.85Z" fill="#2B478B"/>
<path d="M1181.55 1030.85H1164.95V1047.45H1181.55V1030.85Z" fill="#2B478B"/>
<path d="M1214.75 1030.85H1198.15V1047.45H1214.75V1030.85Z" fill="#2B478B"/>
<path d="M1231.35 1030.85H1214.75V1047.45H1231.35V1030.85Z" fill="#2B478B"/>
<path d="M1247.96 1030.85H1231.36V1047.45H1247.96V1030.85Z" fill="#2B478B"/>
<path d="M1264.56 1030.85H1247.96V1047.45H1264.56V1030.85Z" fill="#2B478B"/>
<path d="M1298.74 1030.85H1281.16V1047.45H1298.74V1030.85Z" fill="#2B478B"/>
<path d="M964.758 1014.24H948.158V1030.84H964.758V1014.24Z" fill="#2B478B"/>
<path d="M997.959 1014.24H981.359V1030.84H997.959V1014.24Z" fill="#2B478B"/>
<path d="M1031.17 1014.24H1014.57V1030.84H1031.17V1014.24Z" fill="#2B478B"/>
<path d="M1047.77 1014.24H1031.17V1030.84H1047.77V1014.24Z" fill="#2B478B"/>
<path d="M1097.57 1014.24H1080.97V1030.84H1097.57V1014.24Z" fill="#2B478B"/>
<path d="M1114.17 1014.24H1097.57V1030.84H1114.17V1014.24Z" fill="#2B478B"/>
<path d="M1130.77 1014.24H1114.17V1030.84H1130.77V1014.24Z" fill="#2B478B"/>
<path d="M1164.95 1014.24H1147.37V1030.84H1164.95V1014.24Z" fill="#2B478B"/>
<path d="M1181.55 1014.24H1164.95V1030.84H1181.55V1014.24Z" fill="#2B478B"/>
<path d="M1198.15 1014.24H1181.55V1030.84H1198.15V1014.24Z" fill="#2B478B"/>
<path d="M1231.35 1014.24H1214.75V1030.84H1231.35V1014.24Z" fill="#2B478B"/>
<path d="M1264.56 1014.24H1247.96V1030.84H1264.56V1014.24Z" fill="#2B478B"/>
<path d="M1281.16 1014.24H1264.56V1030.84H1281.16V1014.24Z" fill="#2B478B"/>
<path d="M1298.74 1014.24H1281.16V1030.84H1298.74V1014.24Z" fill="#2B478B"/>
<path d="M948.159 1014.24H931.559V1030.84H948.159V1014.24Z" fill="#2B478B"/>
<path d="M964.758 997.64H948.158V1014.24H964.758V997.64Z" fill="#2B478B"/>
<path d="M1031.17 997.64H1014.57V1014.24H1031.17V997.64Z" fill="#2B478B"/>
<path d="M1047.77 997.64H1031.17V1014.24H1047.77V997.64Z" fill="#2B478B"/>
<path d="M1080.97 997.64H1064.37V1014.24H1080.97V997.64Z" fill="#2B478B"/>
<path d="M1097.57 997.64H1080.97V1014.24H1097.57V997.64Z" fill="#2B478B"/>
<path d="M1130.77 997.64H1114.17V1014.24H1130.77V997.64Z" fill="#2B478B"/>
<path d="M1147.37 997.64H1130.77V1014.24H1147.37V997.64Z" fill="#2B478B"/>
<path d="M1181.55 997.64H1164.95V1014.24H1181.55V997.64Z" fill="#2B478B"/>
<path d="M1198.15 997.64H1181.55V1014.24H1198.15V997.64Z" fill="#2B478B"/>
<path d="M1214.75 997.64H1198.15V1014.24H1214.75V997.64Z" fill="#2B478B"/>
<path d="M1231.35 997.64H1214.75V1014.24H1231.35V997.64Z" fill="#2B478B"/>
<path d="M1247.96 997.64H1231.36V1014.24H1247.96V997.64Z" fill="#2B478B"/>
<path d="M1264.56 997.64H1247.96V1014.24H1264.56V997.64Z" fill="#2B478B"/>
<path d="M948.159 997.64H931.559V1014.24H948.159V997.64Z" fill="#2B478B"/>
<path d="M1080.97 981.04H1064.37V997.64H1080.97V981.04Z" fill="#2B478B"/>
<path d="M1114.17 981.04H1097.57V997.64H1114.17V981.04Z" fill="#2B478B"/>
<path d="M1130.77 981.04H1114.17V997.64H1130.77V981.04Z" fill="#2B478B"/>
<path d="M1164.95 981.04H1147.37V997.64H1164.95V981.04Z" fill="#2B478B"/>
<path d="M1181.55 981.04H1164.95V997.64H1181.55V981.04Z" fill="#2B478B"/>
<path d="M1198.15 981.04H1181.55V997.64H1198.15V981.04Z" fill="#2B478B"/>
<path d="M964.758 964.439H948.158V981.039H964.758V964.439Z" fill="#2B478B"/>
<path d="M981.36 964.439H964.76V981.039H981.36V964.439Z" fill="#2B478B"/>
<path d="M997.959 964.439H981.359V981.039H997.959V964.439Z" fill="#2B478B"/>
<path d="M1014.56 964.439H997.959V981.039H1014.56V964.439Z" fill="#2B478B"/>
<path d="M1031.17 964.439H1014.57V981.039H1031.17V964.439Z" fill="#2B478B"/>
<path d="M1064.37 964.439H1047.77V981.039H1064.37V964.439Z" fill="#2B478B"/>
<path d="M1080.97 964.439H1064.37V981.039H1080.97V964.439Z" fill="#2B478B"/>
<path d="M1130.77 964.439H1114.17V981.039H1130.77V964.439Z" fill="#2B478B"/>
<path d="M1198.15 964.439H1181.55V981.039H1198.15V964.439Z" fill="#2B478B"/>
<path d="M1214.75 964.439H1198.15V981.039H1214.75V964.439Z" fill="#2B478B"/>
<path d="M1247.96 964.439H1231.36V981.039H1247.96V964.439Z" fill="#2B478B"/>
<path d="M1298.74 964.439H1281.16V981.039H1298.74V964.439Z" fill="#2B478B"/>
<path d="M948.159 964.439H931.559V981.039H948.159V964.439Z" fill="#2B478B"/>
<path d="M1031.17 947.84H1014.57V964.44H1031.17V947.84Z" fill="#2B478B"/>
<path d="M1164.95 947.84H1147.37V964.44H1164.95V947.84Z" fill="#2B478B"/>
<path d="M1181.55 947.84H1164.95V964.44H1181.55V947.84Z" fill="#2B478B"/>
<path d="M1214.75 947.84H1198.15V964.44H1214.75V947.84Z" fill="#2B478B"/>
<path d="M1231.35 947.84H1214.75V964.44H1231.35V947.84Z" fill="#2B478B"/>
<path d="M1264.56 947.84H1247.96V964.44H1264.56V947.84Z" fill="#2B478B"/>
<path d="M1281.16 947.84H1264.56V964.44H1281.16V947.84Z" fill="#2B478B"/>
<path d="M1298.74 947.84H1281.16V964.44H1298.74V947.84Z" fill="#2B478B"/>
<path d="M948.159 947.84H931.559V964.44H948.159V947.84Z" fill="#2B478B"/>
<path d="M981.36 931.24H964.76V947.84H981.36V931.24Z" fill="#2B478B"/>
<path d="M997.959 931.24H981.359V947.84H997.959V931.24Z" fill="#2B478B"/>
<path d="M1031.17 931.24H1014.57V947.84H1031.17V931.24Z" fill="#2B478B"/>
<path d="M1064.37 931.24H1047.77V947.84H1064.37V931.24Z" fill="#2B478B"/>
<path d="M1080.97 931.24H1064.37V947.84H1080.97V931.24Z" fill="#2B478B"/>
<path d="M1114.17 931.24H1097.57V947.84H1114.17V931.24Z" fill="#2B478B"/>
<path d="M1130.77 931.24H1114.17V947.84H1130.77V931.24Z" fill="#2B478B"/>
<path d="M1164.95 931.24H1147.37V947.84H1164.95V931.24Z" fill="#2B478B"/>
<path d="M1231.35 931.24H1214.75V947.84H1231.35V931.24Z" fill="#2B478B"/>
<path d="M1247.96 931.24H1231.36V947.84H1247.96V931.24Z" fill="#2B478B"/>
<path d="M1264.56 931.24H1247.96V947.84H1264.56V931.24Z" fill="#2B478B"/>
<path d="M948.159 931.24H931.559V947.84H948.159V931.24Z" fill="#2B478B"/>
<path d="M981.36 914.64H964.76V931.24H981.36V914.64Z" fill="#2B478B"/>
<path d="M997.959 914.64H981.359V931.24H997.959V914.64Z" fill="#2B478B"/>
<path d="M1031.17 914.64H1014.57V931.24H1031.17V914.64Z" fill="#2B478B"/>
<path d="M1064.37 914.64H1047.77V931.24H1064.37V914.64Z" fill="#2B478B"/>
<path d="M1097.57 914.64H1080.97V931.24H1097.57V914.64Z" fill="#2B478B"/>
<path d="M1114.17 914.64H1097.57V931.24H1114.17V914.64Z" fill="#2B478B"/>
<path d="M1130.77 914.64H1114.17V931.24H1130.77V914.64Z" fill="#2B478B"/>
<path d="M1147.37 914.64H1130.77V931.24H1147.37V914.64Z" fill="#2B478B"/>
<path d="M1164.95 914.64H1147.37V931.24H1164.95V914.64Z" fill="#2B478B"/>
<path d="M1198.15 914.64H1181.55V931.24H1198.15V914.64Z" fill="#2B478B"/>
<path d="M1214.75 914.64H1198.15V931.24H1214.75V914.64Z" fill="#2B478B"/>
<path d="M1231.35 914.64H1214.75V931.24H1231.35V914.64Z" fill="#2B478B"/>
<path d="M1264.56 914.64H1247.96V931.24H1264.56V914.64Z" fill="#2B478B"/>
<path d="M1281.16 914.64H1264.56V931.24H1281.16V914.64Z" fill="#2B478B"/>
<path d="M1298.74 914.64H1281.16V931.24H1298.74V914.64Z" fill="#2B478B"/>
<path d="M948.159 914.64H931.559V931.24H948.159V914.64Z" fill="#2B478B"/>
<path d="M1031.17 898.04H1014.57V914.64H1031.17V898.04Z" fill="#2B478B"/>
<path d="M1097.57 898.04H1080.97V914.64H1097.57V898.04Z" fill="#2B478B"/>
<path d="M1114.17 898.04H1097.57V914.64H1114.17V898.04Z" fill="#2B478B"/>
<path d="M1147.37 898.04H1130.77V914.64H1147.37V898.04Z" fill="#2B478B"/>
<path d="M1164.95 898.04H1147.37V914.64H1164.95V898.04Z" fill="#2B478B"/>
<path d="M1181.55 898.04H1164.95V914.64H1181.55V898.04Z" fill="#2B478B"/>
<path d="M1198.15 898.04H1181.55V914.64H1198.15V898.04Z" fill="#2B478B"/>
<path d="M1281.16 898.04H1264.56V914.64H1281.16V898.04Z" fill="#2B478B"/>
<path d="M948.159 898.04H931.559V914.64H948.159V898.04Z" fill="#2B478B"/>
<path d="M964.758 881.439H948.158V898.039H964.758V881.439Z" fill="#2B478B"/>
<path d="M981.36 881.439H964.76V898.039H981.36V881.439Z" fill="#2B478B"/>
<path d="M997.959 881.439H981.359V898.039H997.959V881.439Z" fill="#2B478B"/>
<path d="M1014.56 881.439H997.959V898.039H1014.56V881.439Z" fill="#2B478B"/>
<path d="M1031.17 881.439H1014.57V898.039H1031.17V881.439Z" fill="#2B478B"/>
<path d="M1064.37 881.439H1047.77V898.039H1064.37V881.439Z" fill="#2B478B"/>
<path d="M1080.97 881.439H1064.37V898.039H1080.97V881.439Z" fill="#2B478B"/>
<path d="M1164.95 881.439H1147.37V898.039H1164.95V881.439Z" fill="#2B478B"/>
<path d="M1198.15 881.439H1181.55V898.039H1198.15V881.439Z" fill="#2B478B"/>
<path d="M1231.35 881.439H1214.75V898.039H1231.35V881.439Z" fill="#2B478B"/>
<path d="M1247.96 881.439H1231.36V898.039H1247.96V881.439Z" fill="#2B478B"/>
<path d="M1298.74 881.439H1281.16V898.039H1298.74V881.439Z" fill="#2B478B"/>
<path d="M948.159 881.439H931.559V898.039H948.159V881.439Z" fill="#2B478B"/>
<g opacity="0.8">
<path d="M876.08 914.13C872.82 914.13 870.18 911.49 870.18 908.23V827.72C870.18 824.46 872.82 821.82 876.08 821.82H957.32C960.58 821.82 963.22 824.46 963.22 827.72C963.22 830.98 960.58 833.62 957.32 833.62H881.99V908.23C881.99 911.49 879.35 914.13 876.09 914.13H876.08Z" fill="white"/>
<path d="M1354.22 914.49C1350.96 914.49 1348.32 911.85 1348.32 908.59V833.26H1273.71C1270.45 833.26 1267.81 830.62 1267.81 827.36C1267.81 824.1 1270.45 821.46 1273.71 821.46H1354.22C1357.48 821.46 1360.12 824.1 1360.12 827.36V908.6C1360.12 911.86 1357.48 914.5 1354.22 914.5V914.49Z" fill="white"/>
</g>
<g opacity="0.8">
<path d="M1354.22 1319.09H1272.98C1269.72 1319.09 1267.08 1316.45 1267.08 1313.19C1267.08 1309.93 1269.72 1307.28 1272.98 1307.28H1348.31V1232.67C1348.31 1229.41 1350.95 1226.77 1354.21 1226.77C1357.47 1226.77 1360.11 1229.41 1360.11 1232.67V1313.18C1360.11 1316.44 1357.47 1319.08 1354.21 1319.08L1354.22 1319.09Z" fill="white"/>
<path d="M956.59 1319.45H876.08C872.82 1319.45 870.18 1316.81 870.18 1313.55V1232.31C870.18 1229.05 872.82 1226.41 876.08 1226.41C879.34 1226.41 881.98 1229.05 881.98 1232.31V1307.64H956.59C959.85 1307.64 962.49 1310.28 962.49 1313.54C962.49 1316.8 959.85 1319.44 956.59 1319.44V1319.45Z" fill="white"/>
</g>
<path d="M917.491 1419.92H1312.82C1319 1419.92 1324.01 1424.94 1324.01 1431.11V1442.39C1324.01 1448.57 1318.99 1453.58 1312.82 1453.58H917.491C911.311 1453.58 906.301 1448.57 906.301 1442.39V1431.1C906.301 1424.92 911.321 1419.91 917.491 1419.91V1419.92Z" fill="white"/>
<path d="M1198.15 1419.92V1453.59H917.481C911.321 1453.59 906.291 1448.55 906.291 1442.4V1431.11C906.291 1424.95 911.331 1419.92 917.481 1419.92H1198.15Z" fill="#ED7D2B"/>
<path d="M1139.67 1419.92L1108.62 1453.59H1050.51L1081.57 1419.92H1139.67Z" fill="#F99746"/>
<path d="M1198.15 1419.92V1453.59H1144.3L1175.36 1419.92H1198.15Z" fill="#F99746"/>
<path d="M1046.12 1419.92L1015.06 1453.59H956.961L988.021 1419.92H1046.12Z" fill="#F99746"/>
<path d="M952.571 1419.92L921.511 1453.59H917.251C911.091 1453.59 906.061 1448.55 906.061 1442.4V1431.11C906.061 1424.95 911.101 1419.92 917.251 1419.92H952.561H952.571Z" fill="#F99746"/>
<path d="M1072.31 1400.7L1074.52 1398.08C1076.52 1399.81 1078.52 1400.79 1081.11 1400.79C1083.38 1400.79 1084.81 1399.75 1084.81 1398.11C1084.81 1396.62 1083.97 1395.81 1080.1 1394.89C1075.66 1393.84 1073.15 1392.53 1073.15 1388.63C1073.15 1385.05 1076.13 1382.57 1080.28 1382.57C1083.32 1382.57 1085.74 1383.49 1087.86 1385.19L1085.89 1387.96C1084.01 1386.56 1082.13 1385.81 1080.22 1385.81C1078.07 1385.81 1076.82 1386.91 1076.82 1388.35C1076.82 1389.96 1077.77 1390.68 1081.77 1391.63C1086.19 1392.7 1088.48 1394.29 1088.48 1397.8C1088.48 1401.71 1085.41 1404.03 1081.02 1404.03C1077.83 1404.03 1074.81 1402.93 1072.31 1400.69V1400.7Z" fill="white"/>
<path d="M1091.88 1393.3C1091.88 1387.36 1096.33 1382.5 1102.65 1382.5C1106.5 1382.5 1108.82 1383.84 1110.82 1385.75L1108.46 1388.46C1106.79 1386.91 1105 1385.86 1102.61 1385.86C1098.61 1385.86 1095.72 1389.14 1095.72 1393.29C1095.72 1397.44 1098.61 1400.72 1102.61 1400.72C1105.18 1400.72 1106.82 1399.68 1108.61 1398.01L1110.97 1400.4C1108.79 1402.67 1106.41 1404.1 1102.5 1404.1C1096.41 1404.1 1091.88 1399.36 1091.88 1393.3Z" fill="white"/>
<path d="M1122.22 1382.71H1125.62L1134.81 1403.74H1130.93L1128.81 1398.7H1118.94L1116.79 1403.74H1113.03L1122.22 1382.71ZM1127.47 1395.45L1123.86 1387.1L1120.28 1395.45H1127.47Z" fill="white"/>
<path d="M1138.39 1382.86H1141.79L1152.98 1397.3V1382.86H1156.59V1403.74H1153.52L1142.01 1388.88V1403.74H1138.4V1382.86H1138.39Z" fill="white"/>
<path d="M1428.37 1236.08C1447.63 1230.46 1469.38 1236.91 1482.98 1251.67C1516.6 1288.19 1491.81 1316.34 1508.64 1341.9C1518.81 1357.34 1527.35 1384.39 1495.85 1400.39C1481.29 1407.79 1437.9 1446.45 1429.02 1447.36C1338.99 1456.61 1337.37 1365.27 1367.72 1338.8C1410.37 1301.6 1371.4 1252.7 1428.38 1236.08H1428.37Z" fill="#233862"/>
<path d="M1475.42 1377.28C1475.42 1377.28 1557.58 1417.08 1572.97 1416.41C1588.36 1415.74 1684.56 1381.86 1684.56 1381.86L1682.15 1398.17C1682.15 1398.17 1608.96 1440.26 1583.38 1442.65C1558.19 1445 1472.05 1420.04 1463.74 1414.77C1455.42 1409.5 1451.26 1382.6 1475.43 1377.27L1475.42 1377.28Z" fill="#ED985F"/>
<path d="M1484.47 1414.83C1477.02 1420 1467.69 1424.26 1455.97 1426.96C1412.03 1437.11 1395.19 1399.98 1388.87 1374.49C1394.86 1371.06 1400.5 1370.31 1403.76 1369.92C1406.94 1369.55 1410.28 1369.3 1413.04 1369.16C1417.97 1365.38 1425.33 1349.92 1426.95 1325.9L1429.02 1326.45L1463.65 1335.93C1463.65 1335.93 1462.06 1346.94 1461.29 1357.34C1460.69 1365.48 1460.59 1373.26 1462.14 1375.17C1464.84 1375.76 1466.46 1376.14 1466.46 1376.14C1466.46 1376.14 1466.46 1376.15 1466.48 1376.17C1466.94 1376.93 1476.99 1393.45 1484.49 1414.84L1484.47 1414.83Z" fill="#FFB27D"/>
<path d="M1463.64 1335.93C1463.64 1335.93 1462.05 1346.93 1461.28 1357.34C1441.66 1355.38 1432.56 1336.7 1429.01 1326.45L1463.64 1335.93Z" fill="#ED985F"/>
<path d="M1469.5 1346.26C1469.5 1346.26 1422.93 1343.69 1424.98 1314.72C1427.03 1285.75 1422.4 1265.9 1452.21 1266.32C1482.03 1266.74 1487.02 1278.2 1488.69 1288.04C1490.36 1297.88 1481.67 1346.19 1469.5 1346.27V1346.26Z" fill="#FFB27D"/>
<path d="M1488.46 1271.82C1481.9 1262.59 1476.33 1264.11 1473.09 1266.51C1448.67 1250.71 1430.81 1270.2 1430.81 1270.2C1426.21 1290.76 1410.36 1301.6 1410.36 1301.6C1410.36 1301.6 1418.61 1308.2 1438.36 1303.82C1463.63 1298.22 1472.31 1276.3 1473.49 1272.94C1476.15 1275.69 1479.58 1277.44 1482.21 1283.42C1485.34 1290.51 1487.3 1294.63 1487.36 1306.28C1487.36 1306.28 1498.3 1285.66 1488.46 1271.82Z" fill="#233862"/>
<path d="M1375.6 1509.5C1371.39 1488 1357.68 1402.12 1371.39 1374.48C1376.31 1364.55 1395.64 1363.66 1416.84 1364.53C1423.44 1368.79 1448.57 1384.88 1458.9 1382.87C1459.01 1382.85 1459.21 1382.8 1459.48 1382.73C1464.34 1381.51 1466.18 1378.1 1462.12 1375.15C1462.12 1375.15 1471.43 1375.81 1484.47 1378.26C1491.84 1379.65 1512.06 1392.06 1512.06 1392.06C1512.06 1392.06 1502.89 1406.33 1488.14 1412.56C1490.65 1435 1486.92 1444.9 1463.64 1496.72C1443.97 1540.53 1466.29 1579.97 1466.29 1579.97C1466.29 1579.97 1350.5 1673.06 1349.86 1625.66C1349.38 1589.98 1380.98 1536.96 1375.6 1509.48V1509.5Z" fill="#F99746"/>
<path d="M1472.03 1681.21C1478.33 1680.5 1484 1677.05 1487.52 1671.78C1488.08 1670.94 1488.68 1670.04 1489.31 1669.08C1502.49 1649.13 1507.62 1588.03 1537.26 1522.93C1544.48 1507.08 1570.4 1504.23 1577.47 1486.32C1577.47 1486.32 1594.87 1428.25 1544.17 1426.54C1493.47 1424.83 1408.41 1588.1 1407.07 1605.23C1405.77 1621.82 1373.56 1692.32 1472.03 1681.2V1681.21Z" fill="#01AE92"/>
<path d="M1673.51 1680.87H1601.36C1601.36 1680.87 1598.66 1669.06 1603.4 1661.02C1607.59 1653.91 1605.99 1649.85 1602.88 1643.97C1606.15 1645.34 1610.38 1646.59 1615.03 1646.32C1618.62 1646.11 1622.43 1644.43 1625.76 1642.45C1628.87 1646.08 1642.16 1661.56 1646.32 1664.62C1651.04 1668.1 1672.06 1666.86 1673.51 1680.88V1680.87Z" fill="#0D2644"/>
<path d="M1579.12 1443.33C1583.46 1475.9 1600.43 1578.7 1630.36 1628.86C1640.01 1645.03 1606.05 1654.09 1605.87 1654.05C1601.32 1652.86 1593.73 1645.6 1590.23 1642.45C1565.93 1620.55 1516.61 1558.55 1516.61 1508.84C1516.61 1484.6 1516.19 1438.31 1533.81 1426.54C1544.66 1419.29 1577.4 1430.4 1579.12 1443.34V1443.33Z" fill="#01AE92"/>
<path d="M1378.43 1414.78C1378.43 1414.78 1393.07 1444.57 1461.42 1465.61C1529.77 1486.66 1490.67 1433.78 1490.67 1433.78L1395.12 1400.39L1378.43 1414.78Z" fill="#ED7D2B"/>
<path d="M1436.8 1681.28C1436.8 1681.28 1440.46 1675.8 1442.78 1667.65C1446.66 1654.04 1448.04 1644.13 1455.49 1622.93C1463.32 1600.67 1472.6 1573.29 1484.2 1544.8C1487.78 1536.01 1491.58 1527.11 1495.63 1518.22C1502.85 1502.37 1522.72 1504.56 1529.78 1486.65C1529.78 1486.65 1557.36 1424.55 1506.66 1422.83C1455.97 1421.12 1359.64 1588.97 1354.11 1605.22C1348.05 1623.01 1326.28 1698.32 1436.8 1681.27V1681.28Z" fill="#01AE92"/>
<path d="M1620.54 1680.87H1548.39C1548.39 1680.87 1545.69 1669.06 1550.43 1661.02C1554.62 1653.91 1553.02 1649.85 1549.91 1643.97C1553.18 1645.34 1557.41 1646.59 1562.06 1646.32C1565.65 1646.11 1569.46 1644.43 1572.79 1642.45C1575.9 1646.08 1589.19 1661.56 1593.35 1664.62C1598.06 1668.1 1619.09 1666.86 1620.54 1680.88V1680.87Z" fill="#163560"/>
<g opacity="0.5">
<path d="M1455.48 1622.94C1463.31 1600.68 1472.59 1573.3 1484.19 1544.81C1481.16 1523.23 1474.62 1504.34 1463.63 1496.73C1463.63 1496.73 1436.97 1579.33 1455.47 1622.94H1455.48Z" fill="#01AE92"/>
</g>
<path d="M1537 1441.02C1541.34 1473.59 1547.46 1578.7 1577.39 1628.86C1587.04 1645.03 1553.08 1654.09 1552.9 1654.05C1548.35 1652.86 1540.76 1645.6 1537.26 1642.45C1512.96 1620.55 1463.64 1558.55 1463.64 1508.84C1463.64 1484.6 1492.09 1440.25 1509.71 1428.49C1520.56 1421.24 1535.27 1428.1 1537 1441.04V1441.02Z" fill="#01AE92"/>
<path d="M1693.18 1339.89L1619.29 1332.04C1617.14 1331.81 1615.1 1333.06 1614.33 1335.09L1587.89 1404.56C1586.73 1407.61 1588.9 1410.89 1592.16 1411.02L1665.48 1413.98C1667.47 1414.06 1669.3 1412.89 1670.07 1411.06L1697.08 1346.48C1698.31 1343.53 1696.36 1340.23 1693.18 1339.9V1339.89Z" fill="#DB6B3A"/>
<path d="M1699.6 1340.56L1625.71 1332.71C1623.56 1332.48 1621.52 1333.73 1620.75 1335.76L1594.31 1405.23C1593.15 1408.28 1595.32 1411.56 1598.58 1411.69L1671.9 1414.65C1673.89 1414.73 1675.72 1413.56 1676.49 1411.72L1703.5 1347.14C1704.73 1344.19 1702.78 1340.89 1699.6 1340.56Z" fill="#F78248"/>
<path d="M1658.64 1373C1659.54 1370.52 1658.26 1368.51 1655.78 1368.51C1653.3 1368.51 1650.56 1370.52 1649.66 1373C1648.76 1375.48 1650.04 1377.49 1652.52 1377.49C1655 1377.49 1657.74 1375.48 1658.64 1373Z" fill="#EBF3FA"/>
<path d="M1697.39 1347.13C1697.83 1345.91 1697.21 1344.92 1695.99 1344.92C1694.77 1344.92 1693.42 1345.91 1692.98 1347.13C1692.54 1348.35 1693.17 1349.34 1694.38 1349.34C1695.59 1349.34 1696.95 1348.35 1697.39 1347.13Z" fill="#EBF3FA"/>
<path d="M1388.86 1374.48C1388.86 1374.48 1491.27 1412.19 1506.65 1411.42C1516.6 1410.92 1599.26 1381.86 1599.26 1381.86L1606.68 1395.9C1606.68 1395.9 1526.22 1447.61 1504.1 1447.36C1460.43 1446.86 1386.74 1420.05 1378.43 1414.78C1370.11 1409.51 1364.69 1379.82 1388.86 1374.48Z" fill="#FFB27D"/>
<path d="M1599.27 1381.86C1599.27 1381.86 1606.69 1370.44 1614.08 1370.1C1621.47 1369.76 1634.23 1375.14 1638.6 1375.98C1642.97 1376.82 1655.39 1380.85 1651.7 1386.9C1648 1392.95 1630.87 1394.29 1623.49 1392.95C1616.1 1391.61 1606.7 1395.9 1606.7 1395.9L1599.28 1381.86H1599.27Z" fill="#FFB27D"/>
<path d="M1612.07 1370.46C1612.07 1370.46 1623.82 1365.07 1627.18 1364.06C1630.54 1363.05 1629.87 1364.08 1628.86 1367.26C1627.85 1370.44 1621.81 1373.48 1621.81 1374.48C1621.81 1375.48 1612.07 1370.46 1612.07 1370.46Z" fill="#FFB27D"/>
<path d="M1691.99 1375.82C1691.99 1375.82 1687.3 1360.37 1682.15 1365.23C1676.79 1370.28 1680.04 1375.33 1680.7 1381.77C1681.95 1394.08 1684.44 1393.55 1686.02 1393C1687.6 1392.45 1693.73 1382.02 1691.99 1375.83V1375.82Z" fill="#FFB27D"/>
<path d="M1692.27 1378.17C1692.27 1378.17 1694.64 1391.32 1682.15 1398.18L1685.85 1389.13L1692.27 1378.17Z" fill="#FFB27D"/>
<path d="M1478.21 1329.6C1478.21 1329.6 1473.81 1327.86 1461.42 1328.86C1461.42 1328.86 1462.08 1333.69 1471.21 1334.17C1476.38 1334.44 1478.21 1329.6 1478.21 1329.6Z" fill="white"/>
<path d="M1441.62 1393.08C1441.62 1393.08 1432.46 1422.07 1401.01 1428.67C1401.01 1428.67 1349.07 1412.67 1374.93 1377.28C1374.93 1377.28 1400.5 1358.28 1441.63 1393.08H1441.62Z" fill="#F99746"/>
<path d="M1692.27 1380.03C1692.27 1380.03 1694.43 1372.79 1694.55 1371.54C1694.67 1370.29 1694.52 1369.66 1693.41 1370.54C1692.3 1371.42 1690.6 1373.74 1691.1 1375.93C1691.6 1378.13 1692.27 1380.03 1692.27 1380.03Z" fill="#FFB27D"/>
<path d="M1017.48 729.35C1015.39 731.75 1015.12 734.42 1016.16 737.28C1016.16 737.29 1016.16 737.31 1016.18 737.32C1018.09 742.61 1024.41 748.51 1031.75 754.4C1032.69 755.16 1033.52 755.85 1034.25 756.48C1034.44 756.65 1034.63 756.82 1034.81 756.98C1034.96 757.11 1035.1 757.25 1035.24 757.37C1042.08 763.68 1039.51 765.12 1051.8 777.93C1065.82 792.52 1075.47 792.78 1078.22 791.45C1080.54 790.32 1075.82 782.58 1070.59 773.88C1070.34 773.46 1070.09 773.04 1069.83 772.61C1069.13 771.45 1068.44 770.28 1067.75 769.12C1061.62 758.65 1063.2 753.74 1064.65 738.17C1065.83 725.51 1084.34 667.46 1084.34 667.46L1057.47 662.83C1057.47 662.83 1049.38 709.06 1040.46 716.18C1035.69 719.98 1030.36 720.02 1025.77 722.84C1025.45 723.04 1025.13 723.24 1024.82 723.44C1022.22 725.17 1019.56 726.95 1017.47 729.35H1017.48Z" fill="#FFC49C"/>
<path d="M1017.48 729.351C1015.39 731.751 1015.12 734.421 1016.16 737.281C1016.16 737.291 1016.16 737.311 1016.18 737.321C1018.52 742.601 1024.68 748.471 1031.78 754.351C1032.71 755.121 1033.53 755.831 1034.25 756.491C1034.44 756.661 1034.63 756.831 1034.81 756.991C1034.96 757.121 1035.1 757.261 1035.24 757.381C1042.08 763.691 1039.51 765.131 1051.8 777.941C1065.82 792.531 1075.47 792.791 1078.22 791.461C1080.54 790.331 1075.82 782.591 1070.59 773.891C1067.86 772.891 1055.18 767.741 1045.6 755.471C1037.16 744.701 1031.53 730.851 1025.78 722.841C1025.46 723.041 1025.14 723.241 1024.83 723.441C1022.23 725.171 1019.57 726.951 1017.48 729.351Z" fill="#233862"/>
<path d="M1234.14 712.56C1235.8 720.85 1247.62 719.47 1260.83 716.24C1274.04 713.01 1270.9 716.85 1289.7 714.77C1308.5 712.69 1314.19 705.68 1314.77 702.88C1315.28 700.4 1305.99 699.52 1296.03 698.38C1294.78 698.24 1293.52 698.08 1292.26 697.93C1281.01 696.52 1272.77 689.26 1262.56 683.3C1252.88 677.65 1238.44 654.65 1238.44 654.65L1212.66 656.69C1212.66 656.69 1226.19 677.24 1231.42 686.17C1234.5 691.42 1234.33 698.37 1233.95 703.74C1233.75 706.66 1233.56 709.64 1234.15 712.56H1234.14Z" fill="#FFC49C"/>
<path d="M1260.83 716.251C1274.04 713.021 1270.9 716.861 1289.7 714.781C1308.5 712.701 1314.19 705.691 1314.77 702.891C1315.28 700.411 1305.99 699.531 1296.03 698.391L1295.94 698.581C1295.94 698.581 1284.67 706.571 1269.02 706.951C1256.27 707.261 1242.76 703.611 1233.95 703.751C1233.75 706.671 1233.56 709.651 1234.15 712.571C1235.81 720.861 1247.63 719.481 1260.84 716.251H1260.83Z" fill="#233862"/>
<path d="M1135.34 547.72L1111.24 612.57L1079.78 697.25C1079.78 697.25 1071.24 698.07 1063.06 695.72C1055.53 693.54 1046.89 687.85 1046.89 687.85C1046.89 687.85 1055.63 596.93 1071.93 544.74C1076.11 531.34 1080.79 520.51 1085.95 514.41C1111.22 484.55 1135.34 547.72 1135.34 547.72Z" fill="#ED7D2B"/>
<path d="M1110.84 444.73C1095.8 439.88 1054.23 445.58 1011.23 453.79C1007.35 454.53 1003.41 452.77 1001.36 449.39L995.309 439.41L897.599 431.78C897.599 431.78 872.379 489.08 883.099 536.75C885.729 548.43 900.009 563.55 921.839 564.91C983.039 568.72 1024.33 547.46 1087.86 525.13C1098.91 521.25 1103.94 545.8 1115.43 569.92C1126.92 594.04 1223.4 676.74 1223.4 676.74C1223.4 676.74 1238.23 676.89 1244.35 674.59C1250.94 672.12 1253.35 668.91 1253.35 668.91C1253.35 668.91 1146.44 456.21 1110.84 444.73Z" fill="#F99746"/>
<path d="M991.459 154.9C978.939 148.33 959.899 147.44 956.799 147.02C919.779 142.04 897.489 195.85 896.179 212.15C893.759 242.2 877.869 246.78 855.489 265.6C810.629 303.33 823.779 347.18 848.309 363.47C863.029 373.24 888.969 363.47 888.969 363.47C889.339 363.73 959.919 324.01 994.709 304.85C1046.87 297.44 1023.34 171.65 991.439 154.9H991.459Z" fill="#233862"/>
<path d="M965.569 288.54C965.719 288.64 948.449 294.54 936.899 289.42C926.029 284.62 917.799 266.74 917.969 266.73C922.909 266.5 928.339 262.18 932.519 233.83L934.619 234.58L970.009 247.31C970.009 247.31 967.449 258.66 965.789 269.48C964.389 278.56 963.639 287.25 965.579 288.54H965.569Z" fill="#FFB27D"/>
<path d="M970.009 247.321C970.009 247.321 968.239 255.381 966.279 266.401C945.949 262.741 937.479 245.581 934.619 234.591L970.009 247.321Z" fill="#ED975D"/>
<path d="M975.28 258.59C975.28 258.59 926.86 252.09 931.38 222C935.89 191.91 932.68 170.81 963.78 173.69C994.88 176.57 999.15 188.95 1000.09 199.36C1001.03 209.77 987.99 259.51 975.28 258.6V258.59Z" fill="#FFB27D"/>
<path d="M998.319 182.86C998.319 182.86 967.329 209.57 946.249 211.72C925.169 213.87 917.189 207.11 917.189 207.11C917.189 207.11 929.619 196.79 937.089 180.14C939.289 175.23 943.949 171.86 949.309 171.4C964.359 170.1 992.899 169.51 998.319 182.86Z" fill="#233862"/>
<path d="M978.949 180.471C978.949 180.471 989.319 190.501 992.579 197.931C995.729 205.111 996.679 222.271 994.169 229.081C994.169 229.081 1010.32 197.671 1001.18 182.411C991.479 166.231 978.949 180.471 978.949 180.471Z" fill="#233862"/>
<path d="M1006.34 359.86C1010.05 447.25 1004.18 442.43 995.219 446.69C992.129 448.16 985.379 450.26 975.819 450.9C945.769 452.89 892.939 447.94 890.929 442.39C883.999 423.17 888.889 417.2 883.109 387.78C882.509 384.65 881.759 381.26 880.889 377.58C876.069 357.37 871.369 350.5 888.479 318.04C903.989 288.63 920.109 264.77 921.559 265.63C962.489 289.93 965.789 269.51 965.789 269.51C965.789 269.51 1004.32 312.11 1006.35 359.88L1006.34 359.86Z" fill="#01AE92"/>
<path d="M1111.24 612.57L1079.78 697.25C1079.78 697.25 1071.24 698.07 1063.06 695.72C1055.53 693.54 1046.89 687.85 1046.89 687.85C1046.89 687.85 1055.63 596.93 1071.93 544.74L1111.24 612.57Z" fill="#F99746"/>
<path d="M965.789 269.49C965.789 269.49 1007.91 276.63 1012.85 294.76C1017.8 312.89 1046.9 419.49 1046.9 419.49C1046.9 419.49 1025.49 423.34 1015.6 413.45C1005.71 403.56 981.179 321.69 981.179 321.69L965.789 269.49Z" fill="#01AE92"/>
<path d="M975.81 450.89C945.76 452.88 892.93 447.93 890.92 442.38C883.99 423.16 888.88 417.19 883.1 387.77L897.6 346.96C897.6 346.96 895.2 392.41 908.61 404.37C922 416.32 963.49 427.45 970 437.43C973.14 442.22 975.21 447.03 975.81 450.89Z" fill="#01AE92"/>
<path d="M941.379 431.781C941.379 431.781 971.029 425.181 975.809 427.811C980.589 430.441 992.289 440.021 993.749 443.361C995.209 446.691 983.099 440.831 979.159 439.771C976.609 439.091 969.889 441.421 966.569 442.531C952.579 447.191 943.999 444.801 943.999 444.801L941.379 431.791V431.781Z" fill="#FFB27D"/>
<path d="M921.529 265.59C921.529 265.59 881.719 268.04 867.939 287.26C848.539 314.32 810.059 429.63 832.109 445.01C856.949 462.33 945.149 449.54 945.149 449.54C945.149 449.54 948.089 435.82 943.999 429.18C939.909 422.54 873.549 411.82 870.489 408.76C867.429 405.7 908.779 349.03 908.779 339.84C908.779 330.65 921.529 265.58 921.529 265.58V265.59Z" fill="#01AE92"/>
<path d="M977.248 436.061C977.248 436.061 983.458 444.071 985.498 445.031C987.538 445.991 988.848 445.751 988.848 445.751L984.658 438.221L977.238 436.071L977.248 436.061Z" fill="#FFB27D"/>
<path d="M975.809 427.811L993.869 436.581C993.869 436.581 993.099 437.841 990.879 437.741C988.659 437.641 983.049 435.591 983.049 435.591L975.809 427.821V427.811Z" fill="#FFB27D"/>
<path d="M985.498 457.301H1128.37L1171.34 350.431H1028.7L985.498 457.301Z" fill="#2B478B"/>
<path d="M1130.04 453.141H941.379V457.301H1128.37L1130.04 453.141Z" fill="#2B478B"/>
<path d="M1092.3 403.87C1093.38 400.11 1091.2 397.07 1087.45 397.07C1083.7 397.07 1079.78 400.12 1078.7 403.87C1077.62 407.63 1079.79 410.67 1083.55 410.67C1087.31 410.67 1091.23 407.62 1092.3 403.87Z" fill="#EBF3FA"/>
<path d="M2.59 1679.59H2159.34C2160.77 1679.59 2161.93 1680.75 2161.93 1682.18V1683.41C2161.93 1684.84 2160.77 1686 2159.34 1686H2.59C1.16 1686 0 1684.84 0 1683.41V1682.18C0 1680.75 1.16 1679.59 2.59 1679.59Z" fill="#2E3552"/>
</g>
<defs>
<clipPath id="clip0_1023_2812">
<rect width="2161.94" height="1686" fill="white"/>
</clipPath>
</defs>
</svg>
